solid Default
  facet normal -1.000000e+00 -0.000000e+00 -0.000000e+00
    outer loop
      vertex -7.619359e+00 4.571617e+00 7.619364e+00
      vertex -7.619359e+00 4.571617e+00 0.000000e+00
      vertex -7.619359e+00 -3.047748e+00 7.619364e+00
    endloop
  endfacet
  facet normal -1.000000e+00 -0.000000e+00 -0.000000e+00
    outer loop
      vertex -7.619359e+00 -3.047748e+00 7.619364e+00
      vertex -7.619359e+00 4.571617e+00 0.000000e+00
      vertex -7.619359e+00 -3.047748e+00 0.000000e+00
    endloop
  endfacet
  facet normal 0.000000e+00 1.000000e+00 0.000000e+00
    outer loop
      vertex -7.619359e+00 -3.047748e+00 7.619364e+00
      vertex -7.619359e+00 -3.047748e+00 0.000000e+00
      vertex -1.523872e+01 -3.047748e+00 7.619364e+00
    endloop
  endfacet
  facet normal 0.000000e+00 1.000000e+00 0.000000e+00
    outer loop
      vertex -1.523872e+01 -3.047748e+00 7.619364e+00
      vertex -7.619359e+00 -3.047748e+00 0.000000e+00
      vertex -1.523872e+01 -3.047748e+00 0.000000e+00
    endloop
  endfacet
  facet normal 1.000000e+00 0.000000e+00 0.000000e+00
    outer loop
      vertex -1.523872e+01 -3.047748e+00 7.619364e+00
      vertex -1.523872e+01 -3.047748e+00 0.000000e+00
      vertex -1.523872e+01 4.571617e+00 7.619364e+00
    endloop
  endfacet
  facet normal 1.000000e+00 0.000000e+00 0.000000e+00
    outer loop
      vertex -1.523872e+01 4.571617e+00 7.619364e+00
      vertex -1.523872e+01 -3.047748e+00 0.000000e+00
      vertex -1.523872e+01 4.571617e+00 0.000000e+00
    endloop
  endfacet
  facet normal 0.000000e+00 -1.000000e+00 0.000000e+00
    outer loop
      vertex -1.523872e+01 4.571617e+00 7.619364e+00
      vertex -1.523872e+01 4.571617e+00 0.000000e+00
      vertex -7.619359e+00 4.571617e+00 7.619364e+00
    endloop
  endfacet
  facet normal 0.000000e+00 -1.000000e+00 0.000000e+00
    outer loop
      vertex -7.619359e+00 4.571617e+00 7.619364e+00
      vertex -1.523872e+01 4.571617e+00 0.000000e+00
      vertex -7.619359e+00 4.571617e+00 0.000000e+00
    endloop
  endfacet
  facet normal 1.000000e+00 0.000000e+00 0.000000e+00
    outer loop
      vertex 7.619358e+00 -3.047748e+00 7.619364e+00
      vertex 7.619358e+00 -3.047748e+00 0.000000e+00
      vertex 7.619358e+00 4.571617e+00 7.619364e+00
    endloop
  endfacet
  facet normal 1.000000e+00 0.000000e+00 0.000000e+00
    outer loop
      vertex 7.619358e+00 4.571617e+00 7.619364e+00
      vertex 7.619358e+00 -3.047748e+00 0.000000e+00
      vertex 7.619358e+00 4.571617e+00 0.000000e+00
    endloop
  endfacet
  facet normal 0.000000e+00 -1.000000e+00 0.000000e+00
    outer loop
      vertex 7.619358e+00 4.571617e+00 7.619364e+00
      vertex 7.619358e+00 4.571617e+00 0.000000e+00
      vertex 1.523872e+01 4.571617e+00 7.619364e+00
    endloop
  endfacet
  facet normal 0.000000e+00 -1.000000e+00 0.000000e+00
    outer loop
      vertex 1.523872e+01 4.571617e+00 7.619364e+00
      vertex 7.619358e+00 4.571617e+00 0.000000e+00
      vertex 1.523872e+01 4.571617e+00 0.000000e+00
    endloop
  endfacet
  facet normal -1.000000e+00 -0.000000e+00 -0.000000e+00
    outer loop
      vertex 1.523872e+01 4.571617e+00 7.619364e+00
      vertex 1.523872e+01 4.571617e+00 0.000000e+00
      vertex 1.523872e+01 -3.047748e+00 7.619364e+00
    endloop
  endfacet
  facet normal -1.000000e+00 -0.000000e+00 -0.000000e+00
    outer loop
      vertex 1.523872e+01 -3.047748e+00 7.619364e+00
      vertex 1.523872e+01 4.571617e+00 0.000000e+00
      vertex 1.523872e+01 -3.047748e+00 0.000000e+00
    endloop
  endfacet
  facet normal 0.000000e+00 1.000000e+00 0.000000e+00
    outer loop
      vertex 1.523872e+01 -3.047748e+00 7.619364e+00
      vertex 1.523872e+01 -3.047748e+00 0.000000e+00
      vertex 7.619358e+00 -3.047748e+00 7.619364e+00
    endloop
  endfacet
  facet normal 0.000000e+00 1.000000e+00 0.000000e+00
    outer loop
      vertex 7.619358e+00 -3.047748e+00 7.619364e+00
      vertex 1.523872e+01 -3.047748e+00 0.000000e+00
      vertex 7.619358e+00 -3.047748e+00 0.000000e+00
    endloop
  endfacet
  facet normal 1.000000e+00 0.000000e+00 0.000000e+00
    outer loop
      vertex -2.377389e+00 2.742971e+01 7.619364e+00
      vertex -2.377389e+00 2.742971e+01 0.000000e+00
      vertex -2.377389e+00 3.169655e+01 7.619364e+00
    endloop
  endfacet
  facet normal 1.000000e+00 0.000000e+00 0.000000e+00
    outer loop
      vertex -2.377389e+00 3.169655e+01 7.619364e+00
      vertex -2.377389e+00 2.742971e+01 0.000000e+00
      vertex -2.377389e+00 3.169655e+01 0.000000e+00
    endloop
  endfacet
  facet normal 0.000000e+00 -1.000000e+00 0.000000e+00
    outer loop
      vertex -2.377389e+00 3.169655e+01 7.619364e+00
      vertex -2.377389e+00 3.169655e+01 0.000000e+00
      vertex 2.376975e+00 3.169655e+01 7.619364e+00
    endloop
  endfacet
  facet normal 0.000000e+00 -1.000000e+00 0.000000e+00
    outer loop
      vertex 2.376975e+00 3.169655e+01 7.619364e+00
      vertex -2.377389e+00 3.169655e+01 0.000000e+00
      vertex 2.376975e+00 3.169655e+01 0.000000e+00
    endloop
  endfacet
  facet normal -1.000000e+00 -0.000000e+00 -0.000000e+00
    outer loop
      vertex 2.376975e+00 3.169655e+01 7.619364e+00
      vertex 2.376975e+00 3.169655e+01 0.000000e+00
      vertex 2.376975e+00 2.742971e+01 7.619364e+00
    endloop
  endfacet
  facet normal -1.000000e+00 -0.000000e+00 -0.000000e+00
    outer loop
      vertex 2.376975e+00 2.742971e+01 7.619364e+00
      vertex 2.376975e+00 3.169655e+01 0.000000e+00
      vertex 2.376975e+00 2.742971e+01 0.000000e+00
    endloop
  endfacet
  facet normal 0.000000e+00 1.000000e+00 0.000000e+00
    outer loop
      vertex 2.376975e+00 2.742971e+01 7.619364e+00
      vertex 2.376975e+00 2.742971e+01 0.000000e+00
      vertex -2.377389e+00 2.742971e+01 7.619364e+00
    endloop
  endfacet
  facet normal 0.000000e+00 1.000000e+00 0.000000e+00
    outer loop
      vertex -2.377389e+00 2.742971e+01 7.619364e+00
      vertex 2.376975e+00 2.742971e+01 0.000000e+00
      vertex -2.377389e+00 2.742971e+01 0.000000e+00
    endloop
  endfacet
  facet normal 1.776357e-15 1.000000e+00 0.000000e+00
    outer loop
      vertex -3.809688e+00 2.742971e+01 7.619364e+00
      vertex -3.809688e+00 2.742971e+01 0.000000e+00
      vertex -7.619359e+00 2.742971e+01 7.619364e+00
    endloop
  endfacet
  facet normal 1.776357e-15 1.000000e+00 0.000000e+00
    outer loop
      vertex -7.619359e+00 2.742971e+01 7.619364e+00
      vertex -3.809688e+00 2.742971e+01 0.000000e+00
      vertex -7.619359e+00 2.742971e+01 0.000000e+00
    endloop
  endfacet
  facet normal -1.000000e+00 -2.220446e-16 -0.000000e+00
    outer loop
      vertex 1.523872e+01 -2.590584e+01 7.619364e+00
      vertex 1.523872e+01 -2.590584e+01 0.000000e+00
      vertex 1.523872e+01 -3.352520e+01 7.619364e+00
    endloop
  endfacet
  facet normal -1.000000e+00 -2.220446e-16 0.000000e+00
    outer loop
      vertex 1.523872e+01 -3.352520e+01 7.619364e+00
      vertex 1.523872e+01 -2.590584e+01 0.000000e+00
      vertex 1.523872e+01 -3.352520e+01 0.000000e+00
    endloop
  endfacet
  facet normal -4.440893e-16 1.000000e+00 0.000000e+00
    outer loop
      vertex 1.904841e+01 -2.590584e+01 7.619364e+00
      vertex 1.904841e+01 -2.590584e+01 0.000000e+00
      vertex 1.523872e+01 -2.590584e+01 7.619364e+00
    endloop
  endfacet
  facet normal -4.440893e-16 1.000000e+00 0.000000e+00
    outer loop
      vertex 1.523872e+01 -2.590584e+01 7.619364e+00
      vertex 1.904841e+01 -2.590584e+01 0.000000e+00
      vertex 1.523872e+01 -2.590584e+01 0.000000e+00
    endloop
  endfacet
  facet normal -1.000000e+00 -0.000000e+00 -0.000000e+00
    outer loop
      vertex 1.904841e+01 -1.828648e+01 7.619364e+00
      vertex 1.904841e+01 -1.828648e+01 0.000000e+00
      vertex 1.904841e+01 -2.590584e+01 7.619364e+00
    endloop
  endfacet
  facet normal -1.000000e+00 -0.000000e+00 -0.000000e+00
    outer loop
      vertex 1.904841e+01 -2.590584e+01 7.619364e+00
      vertex 1.904841e+01 -1.828648e+01 0.000000e+00
      vertex 1.904841e+01 -2.590584e+01 0.000000e+00
    endloop
  endfacet
  facet normal 5.551116e-16 -1.000000e+00 0.000000e+00
    outer loop
      vertex 1.523872e+01 -1.828648e+01 7.619364e+00
      vertex 1.523872e+01 -1.828648e+01 0.000000e+00
      vertex 1.904841e+01 -1.828648e+01 7.619364e+00
    endloop
  endfacet
  facet normal 5.551116e-16 -1.000000e+00 0.000000e+00
    outer loop
      vertex 1.904841e+01 -1.828648e+01 7.619364e+00
      vertex 1.523872e+01 -1.828648e+01 0.000000e+00
      vertex 1.904841e+01 -1.828648e+01 0.000000e+00
    endloop
  endfacet
  facet normal -1.000000e+00 -2.220446e-16 -0.000000e+00
    outer loop
      vertex 1.523872e+01 -1.066711e+01 7.619364e+00
      vertex 1.523872e+01 -1.066711e+01 0.000000e+00
      vertex 1.523872e+01 -1.828648e+01 7.619364e+00
    endloop
  endfacet
  facet normal -1.000000e+00 -2.220446e-16 0.000000e+00
    outer loop
      vertex 1.523872e+01 -1.828648e+01 7.619364e+00
      vertex 1.523872e+01 -1.066711e+01 0.000000e+00
      vertex 1.523872e+01 -1.828648e+01 0.000000e+00
    endloop
  endfacet
  facet normal 6.661339e-16 -1.000000e+00 0.000000e+00
    outer loop
      vertex 7.619358e+00 -1.066711e+01 7.619364e+00
      vertex 7.619358e+00 -1.066711e+01 0.000000e+00
      vertex 1.523872e+01 -1.066711e+01 7.619364e+00
    endloop
  endfacet
  facet normal 6.661339e-16 -1.000000e+00 0.000000e+00
    outer loop
      vertex 1.523872e+01 -1.066711e+01 7.619364e+00
      vertex 7.619358e+00 -1.066711e+01 0.000000e+00
      vertex 1.523872e+01 -1.066711e+01 0.000000e+00
    endloop
  endfacet
  facet normal 1.000000e+00 4.440893e-16 0.000000e+00
    outer loop
      vertex 7.619358e+00 -1.828648e+01 7.619364e+00
      vertex 7.619358e+00 -1.828648e+01 0.000000e+00
      vertex 7.619358e+00 -1.066711e+01 7.619364e+00
    endloop
  endfacet
  facet normal 1.000000e+00 4.440893e-16 0.000000e+00
    outer loop
      vertex 7.619358e+00 -1.066711e+01 7.619364e+00
      vertex 7.619358e+00 -1.828648e+01 0.000000e+00
      vertex 7.619358e+00 -1.066711e+01 0.000000e+00
    endloop
  endfacet
  facet normal 0.000000e+00 -1.000000e+00 0.000000e+00
    outer loop
      vertex -7.619359e+00 -1.828648e+01 7.619364e+00
      vertex -7.619359e+00 -1.828648e+01 0.000000e+00
      vertex 7.619358e+00 -1.828648e+01 7.619364e+00
    endloop
  endfacet
  facet normal 0.000000e+00 -1.000000e+00 0.000000e+00
    outer loop
      vertex 7.619358e+00 -1.828648e+01 7.619364e+00
      vertex -7.619359e+00 -1.828648e+01 0.000000e+00
      vertex 7.619358e+00 -1.828648e+01 0.000000e+00
    endloop
  endfacet
  facet normal -1.000000e+00 -0.000000e+00 -0.000000e+00
    outer loop
      vertex -7.619359e+00 -1.066711e+01 7.619364e+00
      vertex -7.619359e+00 -1.066711e+01 0.000000e+00
      vertex -7.619359e+00 -1.828648e+01 7.619364e+00
    endloop
  endfacet
  facet normal -1.000000e+00 -0.000000e+00 -0.000000e+00
    outer loop
      vertex -7.619359e+00 -1.828648e+01 7.619364e+00
      vertex -7.619359e+00 -1.066711e+01 0.000000e+00
      vertex -7.619359e+00 -1.828648e+01 0.000000e+00
    endloop
  endfacet
  facet normal -6.661339e-16 -1.000000e+00 -0.000000e+00
    outer loop
      vertex -1.523872e+01 -1.066711e+01 7.619364e+00
      vertex -1.523872e+01 -1.066711e+01 0.000000e+00
      vertex -7.619359e+00 -1.066711e+01 7.619364e+00
    endloop
  endfacet
  facet normal -6.661339e-16 -1.000000e+00 0.000000e+00
    outer loop
      vertex -7.619359e+00 -1.066711e+01 7.619364e+00
      vertex -1.523872e+01 -1.066711e+01 0.000000e+00
      vertex -7.619359e+00 -1.066711e+01 0.000000e+00
    endloop
  endfacet
  facet normal 1.000000e+00 0.000000e+00 0.000000e+00
    outer loop
      vertex -1.523872e+01 -1.828648e+01 7.619364e+00
      vertex -1.523872e+01 -1.828648e+01 0.000000e+00
      vertex -1.523872e+01 -1.066711e+01 7.619364e+00
    endloop
  endfacet
  facet normal 1.000000e+00 0.000000e+00 0.000000e+00
    outer loop
      vertex -1.523872e+01 -1.066711e+01 7.619364e+00
      vertex -1.523872e+01 -1.828648e+01 0.000000e+00
      vertex -1.523872e+01 -1.066711e+01 0.000000e+00
    endloop
  endfacet
  facet normal -5.551116e-16 -1.000000e+00 -0.000000e+00
    outer loop
      vertex -1.904841e+01 -1.828648e+01 7.619364e+00
      vertex -1.904841e+01 -1.828648e+01 0.000000e+00
      vertex -1.523872e+01 -1.828648e+01 7.619364e+00
    endloop
  endfacet
  facet normal -5.551116e-16 -1.000000e+00 0.000000e+00
    outer loop
      vertex -1.523872e+01 -1.828648e+01 7.619364e+00
      vertex -1.904841e+01 -1.828648e+01 0.000000e+00
      vertex -1.523872e+01 -1.828648e+01 0.000000e+00
    endloop
  endfacet
  facet normal 1.000000e+00 0.000000e+00 0.000000e+00
    outer loop
      vertex -1.904841e+01 -2.590584e+01 7.619364e+00
      vertex -1.904841e+01 -2.590584e+01 0.000000e+00
      vertex -1.904841e+01 -1.828648e+01 7.619364e+00
    endloop
  endfacet
  facet normal 1.000000e+00 0.000000e+00 0.000000e+00
    outer loop
      vertex -1.904841e+01 -1.828648e+01 7.619364e+00
      vertex -1.904841e+01 -2.590584e+01 0.000000e+00
      vertex -1.904841e+01 -1.828648e+01 0.000000e+00
    endloop
  endfacet
  facet normal 4.440893e-16 1.000000e+00 0.000000e+00
    outer loop
      vertex -1.523872e+01 -2.590584e+01 7.619364e+00
      vertex -1.523872e+01 -2.590584e+01 0.000000e+00
      vertex -1.904841e+01 -2.590584e+01 7.619364e+00
    endloop
  endfacet
  facet normal 4.440893e-16 1.000000e+00 0.000000e+00
    outer loop
      vertex -1.904841e+01 -2.590584e+01 7.619364e+00
      vertex -1.523872e+01 -2.590584e+01 0.000000e+00
      vertex -1.904841e+01 -2.590584e+01 0.000000e+00
    endloop
  endfacet
  facet normal 1.000000e+00 0.000000e+00 0.000000e+00
    outer loop
      vertex -1.523872e+01 -3.352520e+01 7.619364e+00
      vertex -1.523872e+01 -3.352520e+01 0.000000e+00
      vertex -1.523872e+01 -2.590584e+01 7.619364e+00
    endloop
  endfacet
  facet normal 1.000000e+00 0.000000e+00 0.000000e+00
    outer loop
      vertex -1.523872e+01 -2.590584e+01 7.619364e+00
      vertex -1.523872e+01 -3.352520e+01 0.000000e+00
      vertex -1.523872e+01 -2.590584e+01 0.000000e+00
    endloop
  endfacet
  facet normal 2.960595e-16 -1.000000e+00 0.000000e+00
    outer loop
      vertex -2.666777e+01 -3.352520e+01 7.619364e+00
      vertex -2.666777e+01 -3.352520e+01 0.000000e+00
      vertex -1.523872e+01 -3.352520e+01 7.619364e+00
    endloop
  endfacet
  facet normal 2.960595e-16 -1.000000e+00 0.000000e+00
    outer loop
      vertex -1.523872e+01 -3.352520e+01 7.619364e+00
      vertex -2.666777e+01 -3.352520e+01 0.000000e+00
      vertex -1.523872e+01 -3.352520e+01 0.000000e+00
    endloop
  endfacet
  facet normal -1.000000e+00 -0.000000e+00 -0.000000e+00
    outer loop
      vertex -2.666777e+01 -2.590584e+01 7.619364e+00
      vertex -2.666777e+01 -2.590584e+01 0.000000e+00
      vertex -2.666777e+01 -3.352520e+01 7.619364e+00
    endloop
  endfacet
  facet normal -1.000000e+00 -0.000000e+00 -0.000000e+00
    outer loop
      vertex -2.666777e+01 -3.352520e+01 7.619364e+00
      vertex -2.666777e+01 -2.590584e+01 0.000000e+00
      vertex -2.666777e+01 -3.352520e+01 0.000000e+00
    endloop
  endfacet
  facet normal -4.440893e-16 -1.000000e+00 -0.000000e+00
    outer loop
      vertex -3.047745e+01 -2.590584e+01 7.619364e+00
      vertex -3.047745e+01 -2.590584e+01 0.000000e+00
      vertex -2.666777e+01 -2.590584e+01 7.619364e+00
    endloop
  endfacet
  facet normal -4.440893e-16 -1.000000e+00 0.000000e+00
    outer loop
      vertex -2.666777e+01 -2.590584e+01 7.619364e+00
      vertex -3.047745e+01 -2.590584e+01 0.000000e+00
      vertex -2.666777e+01 -2.590584e+01 0.000000e+00
    endloop
  endfacet
  facet normal -1.000000e+00 -0.000000e+00 -0.000000e+00
    outer loop
      vertex -3.047745e+01 -1.828648e+01 7.619364e+00
      vertex -3.047745e+01 -1.828648e+01 0.000000e+00
      vertex -3.047745e+01 -2.590584e+01 7.619364e+00
    endloop
  endfacet
  facet normal -1.000000e+00 -0.000000e+00 -0.000000e+00
    outer loop
      vertex -3.047745e+01 -2.590584e+01 7.619364e+00
      vertex -3.047745e+01 -1.828648e+01 0.000000e+00
      vertex -3.047745e+01 -2.590584e+01 0.000000e+00
    endloop
  endfacet
  facet normal 6.661339e-16 1.000000e+00 0.000000e+00
    outer loop
      vertex -2.666777e+01 -1.828648e+01 7.619364e+00
      vertex -2.666777e+01 -1.828648e+01 0.000000e+00
      vertex -3.047745e+01 -1.828648e+01 7.619364e+00
    endloop
  endfacet
  facet normal 6.661339e-16 1.000000e+00 0.000000e+00
    outer loop
      vertex -3.047745e+01 -1.828648e+01 7.619364e+00
      vertex -2.666777e+01 -1.828648e+01 0.000000e+00
      vertex -3.047745e+01 -1.828648e+01 0.000000e+00
    endloop
  endfacet
  facet normal -1.000000e+00 -0.000000e+00 -0.000000e+00
    outer loop
      vertex -2.666777e+01 -1.066711e+01 7.619364e+00
      vertex -2.666777e+01 -1.066711e+01 0.000000e+00
      vertex -2.666777e+01 -1.828648e+01 7.619364e+00
    endloop
  endfacet
  facet normal -1.000000e+00 -0.000000e+00 -0.000000e+00
    outer loop
      vertex -2.666777e+01 -1.828648e+01 7.619364e+00
      vertex -2.666777e+01 -1.066711e+01 0.000000e+00
      vertex -2.666777e+01 -1.828648e+01 0.000000e+00
    endloop
  endfacet
  facet normal -6.661339e-16 -1.000000e+00 -0.000000e+00
    outer loop
      vertex -3.047745e+01 -1.066711e+01 7.619364e+00
      vertex -3.047745e+01 -1.066711e+01 0.000000e+00
      vertex -2.666777e+01 -1.066711e+01 7.619364e+00
    endloop
  endfacet
  facet normal -6.661339e-16 -1.000000e+00 0.000000e+00
    outer loop
      vertex -2.666777e+01 -1.066711e+01 7.619364e+00
      vertex -3.047745e+01 -1.066711e+01 0.000000e+00
      vertex -2.666777e+01 -1.066711e+01 0.000000e+00
    endloop
  endfacet
  facet normal -1.000000e+00 8.881785e-16 0.000000e+00
    outer loop
      vertex -3.047745e+01 4.571617e+00 7.619364e+00
      vertex -3.047745e+01 4.571617e+00 0.000000e+00
      vertex -3.047745e+01 -1.066711e+01 7.619364e+00
    endloop
  endfacet
  facet normal -1.000000e+00 8.881785e-16 0.000000e+00
    outer loop
      vertex -3.047745e+01 -1.066711e+01 7.619364e+00
      vertex -3.047745e+01 4.571617e+00 0.000000e+00
      vertex -3.047745e+01 -1.066711e+01 0.000000e+00
    endloop
  endfacet
  facet normal 8.881785e-16 1.000000e+00 0.000000e+00
    outer loop
      vertex -2.285809e+01 4.571617e+00 7.619364e+00
      vertex -2.285809e+01 4.571617e+00 0.000000e+00
      vertex -3.047745e+01 4.571617e+00 7.619364e+00
    endloop
  endfacet
  facet normal 8.881785e-16 1.000000e+00 0.000000e+00
    outer loop
      vertex -3.047745e+01 4.571617e+00 7.619364e+00
      vertex -2.285809e+01 4.571617e+00 0.000000e+00
      vertex -3.047745e+01 4.571617e+00 0.000000e+00
    endloop
  endfacet
  facet normal -1.000000e+00 -0.000000e+00 -0.000000e+00
    outer loop
      vertex -2.285809e+01 1.219098e+01 7.619364e+00
      vertex -2.285809e+01 1.219098e+01 0.000000e+00
      vertex -2.285809e+01 4.571617e+00 7.619364e+00
    endloop
  endfacet
  facet normal -1.000000e+00 -0.000000e+00 -0.000000e+00
    outer loop
      vertex -2.285809e+01 4.571617e+00 7.619364e+00
      vertex -2.285809e+01 1.219098e+01 0.000000e+00
      vertex -2.285809e+01 4.571617e+00 0.000000e+00
    endloop
  endfacet
  facet normal 8.881785e-16 1.000000e+00 0.000000e+00
    outer loop
      vertex -1.523872e+01 1.219098e+01 7.619364e+00
      vertex -1.523872e+01 1.219098e+01 0.000000e+00
      vertex -2.285809e+01 1.219098e+01 7.619364e+00
    endloop
  endfacet
  facet normal 8.881785e-16 1.000000e+00 0.000000e+00
    outer loop
      vertex -2.285809e+01 1.219098e+01 7.619364e+00
      vertex -1.523872e+01 1.219098e+01 0.000000e+00
      vertex -2.285809e+01 1.219098e+01 0.000000e+00
    endloop
  endfacet
  facet normal -1.000000e+00 -0.000000e+00 -0.000000e+00
    outer loop
      vertex -1.523872e+01 1.981035e+01 7.619364e+00
      vertex -1.523872e+01 1.981035e+01 0.000000e+00
      vertex -1.523872e+01 1.219098e+01 7.619364e+00
    endloop
  endfacet
  facet normal -1.000000e+00 -0.000000e+00 -0.000000e+00
    outer loop
      vertex -1.523872e+01 1.219098e+01 7.619364e+00
      vertex -1.523872e+01 1.981035e+01 0.000000e+00
      vertex -1.523872e+01 1.219098e+01 0.000000e+00
    endloop
  endfacet
  facet normal 1.776357e-15 1.000000e+00 0.000000e+00
    outer loop
      vertex -7.619359e+00 1.981035e+01 7.619364e+00
      vertex -7.619359e+00 1.981035e+01 0.000000e+00
      vertex -1.523872e+01 1.981035e+01 7.619364e+00
    endloop
  endfacet
  facet normal 1.776357e-15 1.000000e+00 0.000000e+00
    outer loop
      vertex -1.523872e+01 1.981035e+01 7.619364e+00
      vertex -7.619359e+00 1.981035e+01 0.000000e+00
      vertex -1.523872e+01 1.981035e+01 0.000000e+00
    endloop
  endfacet
  facet normal -1.000000e+00 8.881785e-16 0.000000e+00
    outer loop
      vertex -7.619359e+00 2.742971e+01 7.619364e+00
      vertex -7.619359e+00 2.742971e+01 0.000000e+00
      vertex -7.619359e+00 1.981035e+01 7.619364e+00
    endloop
  endfacet
  facet normal -1.000000e+00 8.881785e-16 0.000000e+00
    outer loop
      vertex -7.619359e+00 1.981035e+01 7.619364e+00
      vertex -7.619359e+00 2.742971e+01 0.000000e+00
      vertex -7.619359e+00 1.981035e+01 0.000000e+00
    endloop
  endfacet
  facet normal -1.776357e-15 1.000000e+00 0.000000e+00
    outer loop
      vertex 3.809676e+00 2.742971e+01 0.000000e+00
      vertex 3.809676e+00 2.742971e+01 7.619364e+00
      vertex 7.619358e+00 2.742971e+01 0.000000e+00
    endloop
  endfacet
  facet normal -1.776357e-15 1.000000e+00 0.000000e+00
    outer loop
      vertex 7.619358e+00 2.742971e+01 0.000000e+00
      vertex 3.809676e+00 2.742971e+01 7.619364e+00
      vertex 7.619358e+00 2.742971e+01 7.619364e+00
    endloop
  endfacet
  facet normal 1.000000e+00 4.440893e-16 0.000000e+00
    outer loop
      vertex 7.619358e+00 1.981035e+01 7.619364e+00
      vertex 7.619358e+00 1.981035e+01 0.000000e+00
      vertex 7.619358e+00 2.742971e+01 7.619364e+00
    endloop
  endfacet
  facet normal 1.000000e+00 4.440893e-16 0.000000e+00
    outer loop
      vertex 7.619358e+00 2.742971e+01 7.619364e+00
      vertex 7.619358e+00 1.981035e+01 0.000000e+00
      vertex 7.619358e+00 2.742971e+01 0.000000e+00
    endloop
  endfacet
  facet normal -1.776357e-15 1.000000e+00 0.000000e+00
    outer loop
      vertex 1.523872e+01 1.981035e+01 7.619364e+00
      vertex 1.523872e+01 1.981035e+01 0.000000e+00
      vertex 7.619358e+00 1.981035e+01 7.619364e+00
    endloop
  endfacet
  facet normal -1.776357e-15 1.000000e+00 0.000000e+00
    outer loop
      vertex 7.619358e+00 1.981035e+01 7.619364e+00
      vertex 1.523872e+01 1.981035e+01 0.000000e+00
      vertex 7.619358e+00 1.981035e+01 0.000000e+00
    endloop
  endfacet
  facet normal 1.000000e+00 0.000000e+00 0.000000e+00
    outer loop
      vertex 1.523872e+01 1.219098e+01 7.619364e+00
      vertex 1.523872e+01 1.219098e+01 0.000000e+00
      vertex 1.523872e+01 1.981035e+01 7.619364e+00
    endloop
  endfacet
  facet normal 1.000000e+00 0.000000e+00 0.000000e+00
    outer loop
      vertex 1.523872e+01 1.981035e+01 7.619364e+00
      vertex 1.523872e+01 1.219098e+01 0.000000e+00
      vertex 1.523872e+01 1.981035e+01 0.000000e+00
    endloop
  endfacet
  facet normal -8.881785e-16 1.000000e+00 0.000000e+00
    outer loop
      vertex 2.285809e+01 1.219098e+01 7.619364e+00
      vertex 2.285809e+01 1.219098e+01 0.000000e+00
      vertex 1.523872e+01 1.219098e+01 7.619364e+00
    endloop
  endfacet
  facet normal -8.881785e-16 1.000000e+00 0.000000e+00
    outer loop
      vertex 1.523872e+01 1.219098e+01 7.619364e+00
      vertex 2.285809e+01 1.219098e+01 0.000000e+00
      vertex 1.523872e+01 1.219098e+01 0.000000e+00
    endloop
  endfacet
  facet normal 1.000000e+00 1.665335e-16 0.000000e+00
    outer loop
      vertex 2.285809e+01 4.571617e+00 7.619364e+00
      vertex 2.285809e+01 4.571617e+00 0.000000e+00
      vertex 2.285809e+01 1.219098e+01 7.619364e+00
    endloop
  endfacet
  facet normal 1.000000e+00 1.665335e-16 0.000000e+00
    outer loop
      vertex 2.285809e+01 1.219098e+01 7.619364e+00
      vertex 2.285809e+01 4.571617e+00 0.000000e+00
      vertex 2.285809e+01 1.219098e+01 0.000000e+00
    endloop
  endfacet
  facet normal -8.881785e-16 1.000000e+00 0.000000e+00
    outer loop
      vertex 3.047745e+01 4.571617e+00 7.619364e+00
      vertex 3.047745e+01 4.571617e+00 0.000000e+00
      vertex 2.285809e+01 4.571617e+00 7.619364e+00
    endloop
  endfacet
  facet normal -8.881785e-16 1.000000e+00 0.000000e+00
    outer loop
      vertex 2.285809e+01 4.571617e+00 7.619364e+00
      vertex 3.047745e+01 4.571617e+00 0.000000e+00
      vertex 2.285809e+01 4.571617e+00 0.000000e+00
    endloop
  endfacet
  facet normal 1.000000e+00 2.775558e-16 0.000000e+00
    outer loop
      vertex 3.047745e+01 -1.066711e+01 7.619364e+00
      vertex 3.047745e+01 -1.066711e+01 0.000000e+00
      vertex 3.047745e+01 4.571617e+00 7.619364e+00
    endloop
  endfacet
  facet normal 1.000000e+00 2.775558e-16 0.000000e+00
    outer loop
      vertex 3.047745e+01 4.571617e+00 7.619364e+00
      vertex 3.047745e+01 -1.066711e+01 0.000000e+00
      vertex 3.047745e+01 4.571617e+00 0.000000e+00
    endloop
  endfacet
  facet normal 6.661339e-16 -1.000000e+00 0.000000e+00
    outer loop
      vertex 2.666777e+01 -1.066711e+01 7.619364e+00
      vertex 2.666777e+01 -1.066711e+01 0.000000e+00
      vertex 3.047745e+01 -1.066711e+01 7.619364e+00
    endloop
  endfacet
  facet normal 6.661339e-16 -1.000000e+00 0.000000e+00
    outer loop
      vertex 3.047745e+01 -1.066711e+01 7.619364e+00
      vertex 2.666777e+01 -1.066711e+01 0.000000e+00
      vertex 3.047745e+01 -1.066711e+01 0.000000e+00
    endloop
  endfacet
  facet normal 1.000000e+00 1.942890e-16 0.000000e+00
    outer loop
      vertex 2.666777e+01 -1.828648e+01 7.619364e+00
      vertex 2.666777e+01 -1.828648e+01 0.000000e+00
      vertex 2.666777e+01 -1.066711e+01 7.619364e+00
    endloop
  endfacet
  facet normal 1.000000e+00 1.942890e-16 0.000000e+00
    outer loop
      vertex 2.666777e+01 -1.066711e+01 7.619364e+00
      vertex 2.666777e+01 -1.828648e+01 0.000000e+00
      vertex 2.666777e+01 -1.066711e+01 0.000000e+00
    endloop
  endfacet
  facet normal -6.661339e-16 1.000000e+00 0.000000e+00
    outer loop
      vertex 3.047745e+01 -1.828648e+01 7.619364e+00
      vertex 3.047745e+01 -1.828648e+01 0.000000e+00
      vertex 2.666777e+01 -1.828648e+01 7.619364e+00
    endloop
  endfacet
  facet normal -6.661339e-16 1.000000e+00 0.000000e+00
    outer loop
      vertex 2.666777e+01 -1.828648e+01 7.619364e+00
      vertex 3.047745e+01 -1.828648e+01 0.000000e+00
      vertex 2.666777e+01 -1.828648e+01 0.000000e+00
    endloop
  endfacet
  facet normal 1.000000e+00 2.220446e-16 0.000000e+00
    outer loop
      vertex 3.047745e+01 -2.590584e+01 7.619364e+00
      vertex 3.047745e+01 -2.590584e+01 0.000000e+00
      vertex 3.047745e+01 -1.828648e+01 7.619364e+00
    endloop
  endfacet
  facet normal 1.000000e+00 2.220446e-16 0.000000e+00
    outer loop
      vertex 3.047745e+01 -1.828648e+01 7.619364e+00
      vertex 3.047745e+01 -2.590584e+01 0.000000e+00
      vertex 3.047745e+01 -1.828648e+01 0.000000e+00
    endloop
  endfacet
  facet normal 4.440893e-16 -1.000000e+00 0.000000e+00
    outer loop
      vertex 2.666777e+01 -2.590584e+01 7.619364e+00
      vertex 2.666777e+01 -2.590584e+01 0.000000e+00
      vertex 3.047745e+01 -2.590584e+01 7.619364e+00
    endloop
  endfacet
  facet normal 4.440893e-16 -1.000000e+00 0.000000e+00
    outer loop
      vertex 3.047745e+01 -2.590584e+01 7.619364e+00
      vertex 2.666777e+01 -2.590584e+01 0.000000e+00
      vertex 3.047745e+01 -2.590584e+01 0.000000e+00
    endloop
  endfacet
  facet normal 1.000000e+00 1.942890e-16 0.000000e+00
    outer loop
      vertex 2.666777e+01 -3.352520e+01 7.619364e+00
      vertex 2.666777e+01 -3.352520e+01 0.000000e+00
      vertex 2.666777e+01 -2.590584e+01 7.619364e+00
    endloop
  endfacet
  facet normal 1.000000e+00 1.942890e-16 0.000000e+00
    outer loop
      vertex 2.666777e+01 -2.590584e+01 7.619364e+00
      vertex 2.666777e+01 -3.352520e+01 0.000000e+00
      vertex 2.666777e+01 -2.590584e+01 0.000000e+00
    endloop
  endfacet
  facet normal -2.960595e-16 -1.000000e+00 -0.000000e+00
    outer loop
      vertex 1.523872e+01 -3.352520e+01 7.619364e+00
      vertex 1.523872e+01 -3.352520e+01 0.000000e+00
      vertex 2.666777e+01 -3.352520e+01 7.619364e+00
    endloop
  endfacet
  facet normal -2.960595e-16 -1.000000e+00 0.000000e+00
    outer loop
      vertex 2.666777e+01 -3.352520e+01 7.619364e+00
      vertex 1.523872e+01 -3.352520e+01 0.000000e+00
      vertex 2.666777e+01 -3.352520e+01 0.000000e+00
    endloop
  endfacet
  facet normal 1.000000e+00 0.000000e+00 0.000000e+00
    outer loop
      vertex 3.809676e+00 2.742971e+01 7.619364e+00
      vertex 3.809676e+00 2.742971e+01 0.000000e+00
      vertex 3.809676e+00 3.352520e+01 7.619364e+00
    endloop
  endfacet
  facet normal 1.000000e+00 0.000000e+00 0.000000e+00
    outer loop
      vertex 3.809676e+00 3.352520e+01 7.619364e+00
      vertex 3.809676e+00 2.742971e+01 0.000000e+00
      vertex 3.809676e+00 3.352520e+01 0.000000e+00
    endloop
  endfacet
  facet normal -1.000000e+00 -0.000000e+00 -0.000000e+00
    outer loop
      vertex -3.809688e+00 3.352520e+01 7.619364e+00
      vertex -3.809688e+00 3.352520e+01 0.000000e+00
      vertex -3.809688e+00 2.742971e+01 7.619364e+00
    endloop
  endfacet
  facet normal -1.000000e+00 -0.000000e+00 -0.000000e+00
    outer loop
      vertex -3.809688e+00 2.742971e+01 7.619364e+00
      vertex -3.809688e+00 3.352520e+01 0.000000e+00
      vertex -3.809688e+00 2.742971e+01 0.000000e+00
    endloop
  endfacet
  facet normal 0.000000e+00 1.000000e+00 0.000000e+00
    outer loop
      vertex 3.809676e+00 3.352520e+01 7.619364e+00
      vertex 3.809676e+00 3.352520e+01 0.000000e+00
      vertex -3.809688e+00 3.352520e+01 7.619364e+00
    endloop
  endfacet
  facet normal 0.000000e+00 1.000000e+00 0.000000e+00
    outer loop
      vertex -3.809688e+00 3.352520e+01 7.619364e+00
      vertex 3.809676e+00 3.352520e+01 0.000000e+00
      vertex -3.809688e+00 3.352520e+01 0.000000e+00
    endloop
  endfacet
  facet normal 0.000000e+00 0.000000e+00 -1.000000e+00
    outer loop
      vertex -7.619359e+00 4.571617e+00 0.000000e+00
      vertex 7.619358e+00 4.571617e+00 0.000000e+00
      vertex -7.619359e+00 -3.047748e+00 0.000000e+00
    endloop
  endfacet
  facet normal 0.000000e+00 0.000000e+00 -1.000000e+00
    outer loop
      vertex -7.619359e+00 4.571617e+00 0.000000e+00
      vertex 7.619358e+00 1.981035e+01 0.000000e+00
      vertex 7.619358e+00 4.571617e+00 0.000000e+00
    endloop
  endfacet
  facet normal 0.000000e+00 0.000000e+00 -1.000000e+00
    outer loop
      vertex -7.619359e+00 4.571617e+00 0.000000e+00
      vertex -7.619359e+00 1.981035e+01 0.000000e+00
      vertex 7.619358e+00 1.981035e+01 0.000000e+00
    endloop
  endfacet
  facet normal 0.000000e+00 0.000000e+00 -1.000000e+00
    outer loop
      vertex -7.619359e+00 4.571617e+00 0.000000e+00
      vertex -1.523872e+01 1.219098e+01 0.000000e+00
      vertex -7.619359e+00 1.981035e+01 0.000000e+00
    endloop
  endfacet
  facet normal 0.000000e+00 0.000000e+00 -1.000000e+00
    outer loop
      vertex -7.619359e+00 4.571617e+00 0.000000e+00
      vertex -1.523872e+01 4.571617e+00 0.000000e+00
      vertex -1.523872e+01 1.219098e+01 0.000000e+00
    endloop
  endfacet
  facet normal 0.000000e+00 0.000000e+00 -1.000000e+00
    outer loop
      vertex -1.523872e+01 1.219098e+01 0.000000e+00
      vertex -1.523872e+01 4.571617e+00 0.000000e+00
      vertex -2.285809e+01 4.571617e+00 0.000000e+00
    endloop
  endfacet
  facet normal 0.000000e+00 0.000000e+00 -1.000000e+00
    outer loop
      vertex -2.285809e+01 1.219098e+01 0.000000e+00
      vertex -1.523872e+01 1.219098e+01 0.000000e+00
      vertex -2.285809e+01 4.571617e+00 0.000000e+00
    endloop
  endfacet
  facet normal -0.000000e+00 -0.000000e+00 -1.000000e+00
    outer loop
      vertex -1.523872e+01 4.571617e+00 0.000000e+00
      vertex -1.523872e+01 -3.047748e+00 0.000000e+00
      vertex -2.285809e+01 4.571617e+00 0.000000e+00
    endloop
  endfacet
  facet normal 0.000000e+00 0.000000e+00 -1.000000e+00
    outer loop
      vertex -2.285809e+01 4.571617e+00 0.000000e+00
      vertex -1.523872e+01 -3.047748e+00 0.000000e+00
      vertex -2.666777e+01 -1.066711e+01 0.000000e+00
    endloop
  endfacet
  facet normal -0.000000e+00 -0.000000e+00 -1.000000e+00
    outer loop
      vertex -3.047745e+01 4.571617e+00 0.000000e+00
      vertex -2.666777e+01 -1.066711e+01 0.000000e+00
      vertex -3.047745e+01 -1.066711e+01 0.000000e+00
    endloop
  endfacet
  facet normal 0.000000e+00 0.000000e+00 -1.000000e+00
    outer loop
      vertex -3.047745e+01 4.571617e+00 0.000000e+00
      vertex -2.285809e+01 4.571617e+00 0.000000e+00
      vertex -2.666777e+01 -1.066711e+01 0.000000e+00
    endloop
  endfacet
  facet normal 0.000000e+00 0.000000e+00 -1.000000e+00
    outer loop
      vertex -2.666777e+01 -1.066711e+01 0.000000e+00
      vertex -1.523872e+01 -3.047748e+00 0.000000e+00
      vertex -1.523872e+01 -1.066711e+01 0.000000e+00
    endloop
  endfacet
  facet normal 0.000000e+00 0.000000e+00 -1.000000e+00
    outer loop
      vertex -1.904841e+01 -1.828648e+01 0.000000e+00
      vertex -1.523872e+01 -1.066711e+01 0.000000e+00
      vertex -1.523872e+01 -1.828648e+01 0.000000e+00
    endloop
  endfacet
  facet normal 0.000000e+00 0.000000e+00 -1.000000e+00
    outer loop
      vertex -1.904841e+01 -1.828648e+01 0.000000e+00
      vertex -2.666777e+01 -1.066711e+01 0.000000e+00
      vertex -1.523872e+01 -1.066711e+01 0.000000e+00
    endloop
  endfacet
  facet normal 0.000000e+00 0.000000e+00 -1.000000e+00
    outer loop
      vertex -1.904841e+01 -1.828648e+01 0.000000e+00
      vertex -2.666777e+01 -1.828648e+01 0.000000e+00
      vertex -2.666777e+01 -1.066711e+01 0.000000e+00
    endloop
  endfacet
  facet normal -0.000000e+00 -0.000000e+00 -1.000000e+00
    outer loop
      vertex -1.904841e+01 -1.828648e+01 0.000000e+00
      vertex -1.904841e+01 -2.590584e+01 0.000000e+00
      vertex -2.666777e+01 -1.828648e+01 0.000000e+00
    endloop
  endfacet
  facet normal 0.000000e+00 0.000000e+00 -1.000000e+00
    outer loop
      vertex -2.666777e+01 -1.828648e+01 0.000000e+00
      vertex -1.904841e+01 -2.590584e+01 0.000000e+00
      vertex -2.666777e+01 -2.590584e+01 0.000000e+00
    endloop
  endfacet
  facet normal 0.000000e+00 0.000000e+00 -1.000000e+00
    outer loop
      vertex -3.047745e+01 -2.590584e+01 0.000000e+00
      vertex -2.666777e+01 -1.828648e+01 0.000000e+00
      vertex -2.666777e+01 -2.590584e+01 0.000000e+00
    endloop
  endfacet
  facet normal 0.000000e+00 0.000000e+00 -1.000000e+00
    outer loop
      vertex -3.047745e+01 -2.590584e+01 0.000000e+00
      vertex -3.047745e+01 -1.828648e+01 0.000000e+00
      vertex -2.666777e+01 -1.828648e+01 0.000000e+00
    endloop
  endfacet
  facet normal -0.000000e+00 -0.000000e+00 -1.000000e+00
    outer loop
      vertex 7.619358e+00 4.571617e+00 0.000000e+00
      vertex 7.619358e+00 -3.047748e+00 0.000000e+00
      vertex -7.619359e+00 -3.047748e+00 0.000000e+00
    endloop
  endfacet
  facet normal 0.000000e+00 0.000000e+00 -1.000000e+00
    outer loop
      vertex -7.619359e+00 -3.047748e+00 0.000000e+00
      vertex 7.619358e+00 -3.047748e+00 0.000000e+00
      vertex -7.619359e+00 -1.066711e+01 0.000000e+00
    endloop
  endfacet
  facet normal 0.000000e+00 0.000000e+00 -1.000000e+00
    outer loop
      vertex -1.523872e+01 -1.066711e+01 0.000000e+00
      vertex -7.619359e+00 -3.047748e+00 0.000000e+00
      vertex -7.619359e+00 -1.066711e+01 0.000000e+00
    endloop
  endfacet
  facet normal 0.000000e+00 0.000000e+00 -1.000000e+00
    outer loop
      vertex -1.523872e+01 -1.066711e+01 0.000000e+00
      vertex -1.523872e+01 -3.047748e+00 0.000000e+00
      vertex -7.619359e+00 -3.047748e+00 0.000000e+00
    endloop
  endfacet
  facet normal 0.000000e+00 0.000000e+00 -1.000000e+00
    outer loop
      vertex -7.619359e+00 -1.066711e+01 0.000000e+00
      vertex 7.619358e+00 -3.047748e+00 0.000000e+00
      vertex 7.619358e+00 -1.066711e+01 0.000000e+00
    endloop
  endfacet
  facet normal 0.000000e+00 0.000000e+00 -1.000000e+00
    outer loop
      vertex -7.619359e+00 -1.828648e+01 0.000000e+00
      vertex 7.619358e+00 -1.066711e+01 0.000000e+00
      vertex 7.619358e+00 -1.828648e+01 0.000000e+00
    endloop
  endfacet
  facet normal 0.000000e+00 0.000000e+00 -1.000000e+00
    outer loop
      vertex -7.619359e+00 -1.828648e+01 0.000000e+00
      vertex -7.619359e+00 -1.066711e+01 0.000000e+00
      vertex 7.619358e+00 -1.066711e+01 0.000000e+00
    endloop
  endfacet
  facet normal 0.000000e+00 0.000000e+00 -1.000000e+00
    outer loop
      vertex 1.523872e+01 4.571617e+00 0.000000e+00
      vertex 2.285809e+01 4.571617e+00 0.000000e+00
      vertex 1.523872e+01 -3.047748e+00 0.000000e+00
    endloop
  endfacet
  facet normal 0.000000e+00 0.000000e+00 -1.000000e+00
    outer loop
      vertex 1.523872e+01 4.571617e+00 0.000000e+00
      vertex 2.285809e+01 1.219098e+01 0.000000e+00
      vertex 2.285809e+01 4.571617e+00 0.000000e+00
    endloop
  endfacet
  facet normal 0.000000e+00 0.000000e+00 -1.000000e+00
    outer loop
      vertex 1.523872e+01 4.571617e+00 0.000000e+00
      vertex 1.523872e+01 1.219098e+01 0.000000e+00
      vertex 2.285809e+01 1.219098e+01 0.000000e+00
    endloop
  endfacet
  facet normal 0.000000e+00 0.000000e+00 -1.000000e+00
    outer loop
      vertex 1.523872e+01 4.571617e+00 0.000000e+00
      vertex 7.619358e+00 4.571617e+00 0.000000e+00
      vertex 1.523872e+01 1.219098e+01 0.000000e+00
    endloop
  endfacet
  facet normal 0.000000e+00 0.000000e+00 -1.000000e+00
    outer loop
      vertex 1.523872e+01 1.219098e+01 0.000000e+00
      vertex 7.619358e+00 4.571617e+00 0.000000e+00
      vertex 7.619358e+00 1.981035e+01 0.000000e+00
    endloop
  endfacet
  facet normal -0.000000e+00 -0.000000e+00 -1.000000e+00
    outer loop
      vertex 1.523872e+01 1.981035e+01 0.000000e+00
      vertex 1.523872e+01 1.219098e+01 0.000000e+00
      vertex 7.619358e+00 1.981035e+01 0.000000e+00
    endloop
  endfacet
  facet normal 0.000000e+00 0.000000e+00 -1.000000e+00
    outer loop
      vertex -2.377389e+00 2.742971e+01 0.000000e+00
      vertex -3.809688e+00 2.742971e+01 0.000000e+00
      vertex -2.377389e+00 3.169655e+01 0.000000e+00
    endloop
  endfacet
  facet normal 0.000000e+00 0.000000e+00 -1.000000e+00
    outer loop
      vertex -2.377389e+00 2.742971e+01 0.000000e+00
      vertex -7.619359e+00 1.981035e+01 0.000000e+00
      vertex -3.809688e+00 2.742971e+01 0.000000e+00
    endloop
  endfacet
  facet normal 0.000000e+00 0.000000e+00 -1.000000e+00
    outer loop
      vertex -2.377389e+00 2.742971e+01 0.000000e+00
      vertex 2.376975e+00 2.742971e+01 0.000000e+00
      vertex -7.619359e+00 1.981035e+01 0.000000e+00
    endloop
  endfacet
  facet normal 0.000000e+00 0.000000e+00 -1.000000e+00
    outer loop
      vertex -7.619359e+00 1.981035e+01 0.000000e+00
      vertex 2.376975e+00 2.742971e+01 0.000000e+00
      vertex 7.619358e+00 1.981035e+01 0.000000e+00
    endloop
  endfacet
  facet normal 0.000000e+00 0.000000e+00 -1.000000e+00
    outer loop
      vertex 7.619358e+00 1.981035e+01 0.000000e+00
      vertex 2.376975e+00 2.742971e+01 0.000000e+00
      vertex 3.809676e+00 2.742971e+01 0.000000e+00
    endloop
  endfacet
  facet normal -0.000000e+00 -0.000000e+00 -1.000000e+00
    outer loop
      vertex 7.619358e+00 2.742971e+01 0.000000e+00
      vertex 7.619358e+00 1.981035e+01 0.000000e+00
      vertex 3.809676e+00 2.742971e+01 0.000000e+00
    endloop
  endfacet
  facet normal 0.000000e+00 0.000000e+00 -1.000000e+00
    outer loop
      vertex 2.376975e+00 2.742971e+01 0.000000e+00
      vertex 2.376975e+00 3.169655e+01 0.000000e+00
      vertex 3.809676e+00 2.742971e+01 0.000000e+00
    endloop
  endfacet
  facet normal 0.000000e+00 0.000000e+00 -1.000000e+00
    outer loop
      vertex 3.809676e+00 2.742971e+01 0.000000e+00
      vertex 2.376975e+00 3.169655e+01 0.000000e+00
      vertex 3.809676e+00 3.352520e+01 0.000000e+00
    endloop
  endfacet
  facet normal 0.000000e+00 0.000000e+00 -1.000000e+00
    outer loop
      vertex 3.809676e+00 3.352520e+01 0.000000e+00
      vertex 2.376975e+00 3.169655e+01 0.000000e+00
      vertex -3.809688e+00 3.352520e+01 0.000000e+00
    endloop
  endfacet
  facet normal -0.000000e+00 -0.000000e+00 -1.000000e+00
    outer loop
      vertex -3.809688e+00 3.352520e+01 0.000000e+00
      vertex 2.376975e+00 3.169655e+01 0.000000e+00
      vertex -2.377389e+00 3.169655e+01 0.000000e+00
    endloop
  endfacet
  facet normal 0.000000e+00 0.000000e+00 -1.000000e+00
    outer loop
      vertex -3.809688e+00 2.742971e+01 0.000000e+00
      vertex -3.809688e+00 3.352520e+01 0.000000e+00
      vertex -2.377389e+00 3.169655e+01 0.000000e+00
    endloop
  endfacet
  facet normal 0.000000e+00 0.000000e+00 -1.000000e+00
    outer loop
      vertex 1.523872e+01 -3.047748e+00 0.000000e+00
      vertex 2.285809e+01 4.571617e+00 0.000000e+00
      vertex 2.666777e+01 -1.066711e+01 0.000000e+00
    endloop
  endfacet
  facet normal 0.000000e+00 0.000000e+00 -1.000000e+00
    outer loop
      vertex 1.523872e+01 -1.066711e+01 0.000000e+00
      vertex 2.666777e+01 -1.066711e+01 0.000000e+00
      vertex 1.904841e+01 -1.828648e+01 0.000000e+00
    endloop
  endfacet
  facet normal 0.000000e+00 0.000000e+00 -1.000000e+00
    outer loop
      vertex 1.523872e+01 -1.828648e+01 0.000000e+00
      vertex 1.523872e+01 -1.066711e+01 0.000000e+00
      vertex 1.904841e+01 -1.828648e+01 0.000000e+00
    endloop
  endfacet
  facet normal 0.000000e+00 0.000000e+00 -1.000000e+00
    outer loop
      vertex 3.047745e+01 -1.066711e+01 0.000000e+00
      vertex 2.666777e+01 -1.066711e+01 0.000000e+00
      vertex 3.047745e+01 4.571617e+00 0.000000e+00
    endloop
  endfacet
  facet normal 0.000000e+00 0.000000e+00 -1.000000e+00
    outer loop
      vertex 3.047745e+01 4.571617e+00 0.000000e+00
      vertex 2.666777e+01 -1.066711e+01 0.000000e+00
      vertex 2.285809e+01 4.571617e+00 0.000000e+00
    endloop
  endfacet
  facet normal -0.000000e+00 -0.000000e+00 -1.000000e+00
    outer loop
      vertex 2.666777e+01 -1.066711e+01 0.000000e+00
      vertex 2.666777e+01 -1.828648e+01 0.000000e+00
      vertex 1.904841e+01 -1.828648e+01 0.000000e+00
    endloop
  endfacet
  facet normal 0.000000e+00 0.000000e+00 -1.000000e+00
    outer loop
      vertex 1.904841e+01 -1.828648e+01 0.000000e+00
      vertex 2.666777e+01 -1.828648e+01 0.000000e+00
      vertex 1.904841e+01 -2.590584e+01 0.000000e+00
    endloop
  endfacet
  facet normal 0.000000e+00 0.000000e+00 -1.000000e+00
    outer loop
      vertex 1.904841e+01 -2.590584e+01 0.000000e+00
      vertex 2.666777e+01 -1.828648e+01 0.000000e+00
      vertex 2.666777e+01 -2.590584e+01 0.000000e+00
    endloop
  endfacet
  facet normal 0.000000e+00 0.000000e+00 -1.000000e+00
    outer loop
      vertex 2.666777e+01 -3.352520e+01 0.000000e+00
      vertex 1.904841e+01 -2.590584e+01 0.000000e+00
      vertex 2.666777e+01 -2.590584e+01 0.000000e+00
    endloop
  endfacet
  facet normal 0.000000e+00 0.000000e+00 -1.000000e+00
    outer loop
      vertex 2.666777e+01 -3.352520e+01 0.000000e+00
      vertex 1.523872e+01 -3.352520e+01 0.000000e+00
      vertex 1.904841e+01 -2.590584e+01 0.000000e+00
    endloop
  endfacet
  facet normal 0.000000e+00 0.000000e+00 -1.000000e+00
    outer loop
      vertex 1.904841e+01 -2.590584e+01 0.000000e+00
      vertex 1.523872e+01 -3.352520e+01 0.000000e+00
      vertex 1.523872e+01 -2.590584e+01 0.000000e+00
    endloop
  endfacet
  facet normal -0.000000e+00 -0.000000e+00 -1.000000e+00
    outer loop
      vertex 3.047745e+01 -1.828648e+01 0.000000e+00
      vertex 3.047745e+01 -2.590584e+01 0.000000e+00
      vertex 2.666777e+01 -1.828648e+01 0.000000e+00
    endloop
  endfacet
  facet normal 0.000000e+00 0.000000e+00 -1.000000e+00
    outer loop
      vertex 2.666777e+01 -1.828648e+01 0.000000e+00
      vertex 3.047745e+01 -2.590584e+01 0.000000e+00
      vertex 2.666777e+01 -2.590584e+01 0.000000e+00
    endloop
  endfacet
  facet normal 0.000000e+00 0.000000e+00 -1.000000e+00
    outer loop
      vertex 2.666777e+01 -1.066711e+01 0.000000e+00
      vertex 1.523872e+01 -1.066711e+01 0.000000e+00
      vertex 1.523872e+01 -3.047748e+00 0.000000e+00
    endloop
  endfacet
  facet normal 0.000000e+00 0.000000e+00 -1.000000e+00
    outer loop
      vertex 1.523872e+01 -3.047748e+00 0.000000e+00
      vertex 1.523872e+01 -1.066711e+01 0.000000e+00
      vertex 7.619358e+00 -1.066711e+01 0.000000e+00
    endloop
  endfacet
  facet normal 0.000000e+00 0.000000e+00 -1.000000e+00
    outer loop
      vertex 7.619358e+00 -3.047748e+00 0.000000e+00
      vertex 1.523872e+01 -3.047748e+00 0.000000e+00
      vertex 7.619358e+00 -1.066711e+01 0.000000e+00
    endloop
  endfacet
  facet normal -0.000000e+00 -0.000000e+00 -1.000000e+00
    outer loop
      vertex -1.523872e+01 -2.590584e+01 0.000000e+00
      vertex -1.523872e+01 -3.352520e+01 0.000000e+00
      vertex -1.904841e+01 -2.590584e+01 0.000000e+00
    endloop
  endfacet
  facet normal 0.000000e+00 0.000000e+00 -1.000000e+00
    outer loop
      vertex -1.904841e+01 -2.590584e+01 0.000000e+00
      vertex -1.523872e+01 -3.352520e+01 0.000000e+00
      vertex -2.666777e+01 -3.352520e+01 0.000000e+00
    endloop
  endfacet
  facet normal 0.000000e+00 0.000000e+00 -1.000000e+00
    outer loop
      vertex -2.666777e+01 -2.590584e+01 0.000000e+00
      vertex -1.904841e+01 -2.590584e+01 0.000000e+00
      vertex -2.666777e+01 -3.352520e+01 0.000000e+00
    endloop
  endfacet
  facet normal 0.000000e+00 0.000000e+00 -1.000000e+00
    outer loop
      vertex -1.523872e+01 1.219098e+01 0.000000e+00
      vertex -1.523872e+01 1.981035e+01 0.000000e+00
      vertex -7.619359e+00 1.981035e+01 0.000000e+00
    endloop
  endfacet
  facet normal 0.000000e+00 0.000000e+00 -1.000000e+00
    outer loop
      vertex -7.619359e+00 1.981035e+01 0.000000e+00
      vertex -7.619359e+00 2.742971e+01 0.000000e+00
      vertex -3.809688e+00 2.742971e+01 0.000000e+00
    endloop
  endfacet
  facet normal 0.000000e+00 0.000000e+00 1.000000e+00
    outer loop
      vertex -7.619359e+00 -3.047748e+00 7.619364e+00
      vertex 7.619358e+00 -3.047748e+00 7.619364e+00
      vertex -7.619359e+00 4.571617e+00 7.619364e+00
    endloop
  endfacet
  facet normal 0.000000e+00 0.000000e+00 1.000000e+00
    outer loop
      vertex -7.619359e+00 -3.047748e+00 7.619364e+00
      vertex 7.619358e+00 -1.066711e+01 7.619364e+00
      vertex 7.619358e+00 -3.047748e+00 7.619364e+00
    endloop
  endfacet
  facet normal 0.000000e+00 0.000000e+00 1.000000e+00
    outer loop
      vertex -7.619359e+00 -3.047748e+00 7.619364e+00
      vertex -7.619359e+00 -1.066711e+01 7.619364e+00
      vertex 7.619358e+00 -1.066711e+01 7.619364e+00
    endloop
  endfacet
  facet normal 0.000000e+00 0.000000e+00 1.000000e+00
    outer loop
      vertex -7.619359e+00 -3.047748e+00 7.619364e+00
      vertex -1.523872e+01 -3.047748e+00 7.619364e+00
      vertex -7.619359e+00 -1.066711e+01 7.619364e+00
    endloop
  endfacet
  facet normal 0.000000e+00 0.000000e+00 1.000000e+00
    outer loop
      vertex -7.619359e+00 -1.066711e+01 7.619364e+00
      vertex -1.523872e+01 -3.047748e+00 7.619364e+00
      vertex -1.523872e+01 -1.066711e+01 7.619364e+00
    endloop
  endfacet
  facet normal 0.000000e+00 0.000000e+00 1.000000e+00
    outer loop
      vertex -1.523872e+01 -1.066711e+01 7.619364e+00
      vertex -1.523872e+01 -3.047748e+00 7.619364e+00
      vertex -2.666777e+01 -1.066711e+01 7.619364e+00
    endloop
  endfacet
  facet normal 0.000000e+00 0.000000e+00 1.000000e+00
    outer loop
      vertex -1.904841e+01 -1.828648e+01 7.619364e+00
      vertex -2.666777e+01 -1.066711e+01 7.619364e+00
      vertex -2.666777e+01 -1.828648e+01 7.619364e+00
    endloop
  endfacet
  facet normal 0.000000e+00 0.000000e+00 1.000000e+00
    outer loop
      vertex -1.904841e+01 -2.590584e+01 7.619364e+00
      vertex -2.666777e+01 -1.828648e+01 7.619364e+00
      vertex -2.666777e+01 -2.590584e+01 7.619364e+00
    endloop
  endfacet
  facet normal 0.000000e+00 0.000000e+00 1.000000e+00
    outer loop
      vertex -2.666777e+01 -3.352520e+01 7.619364e+00
      vertex -1.904841e+01 -2.590584e+01 7.619364e+00
      vertex -2.666777e+01 -2.590584e+01 7.619364e+00
    endloop
  endfacet
  facet normal 0.000000e+00 0.000000e+00 1.000000e+00
    outer loop
      vertex -2.666777e+01 -3.352520e+01 7.619364e+00
      vertex -1.523872e+01 -3.352520e+01 7.619364e+00
      vertex -1.904841e+01 -2.590584e+01 7.619364e+00
    endloop
  endfacet
  facet normal 0.000000e+00 0.000000e+00 1.000000e+00
    outer loop
      vertex -1.904841e+01 -2.590584e+01 7.619364e+00
      vertex -1.523872e+01 -3.352520e+01 7.619364e+00
      vertex -1.523872e+01 -2.590584e+01 7.619364e+00
    endloop
  endfacet
  facet normal 0.000000e+00 0.000000e+00 1.000000e+00
    outer loop
      vertex -2.666777e+01 -1.066711e+01 7.619364e+00
      vertex -1.523872e+01 -3.047748e+00 7.619364e+00
      vertex -2.285809e+01 4.571617e+00 7.619364e+00
    endloop
  endfacet
  facet normal 0.000000e+00 0.000000e+00 1.000000e+00
    outer loop
      vertex -3.047745e+01 4.571617e+00 7.619364e+00
      vertex -2.666777e+01 -1.066711e+01 7.619364e+00
      vertex -2.285809e+01 4.571617e+00 7.619364e+00
    endloop
  endfacet
  facet normal 0.000000e+00 0.000000e+00 1.000000e+00
    outer loop
      vertex -3.047745e+01 4.571617e+00 7.619364e+00
      vertex -3.047745e+01 -1.066711e+01 7.619364e+00
      vertex -2.666777e+01 -1.066711e+01 7.619364e+00
    endloop
  endfacet
  facet normal 0.000000e+00 0.000000e+00 1.000000e+00
    outer loop
      vertex -7.619359e+00 4.571617e+00 7.619364e+00
      vertex -1.523872e+01 1.219098e+01 7.619364e+00
      vertex -1.523872e+01 4.571617e+00 7.619364e+00
    endloop
  endfacet
  facet normal 0.000000e+00 0.000000e+00 1.000000e+00
    outer loop
      vertex -7.619359e+00 4.571617e+00 7.619364e+00
      vertex -7.619359e+00 1.981035e+01 7.619364e+00
      vertex -1.523872e+01 1.219098e+01 7.619364e+00
    endloop
  endfacet
  facet normal 0.000000e+00 0.000000e+00 1.000000e+00
    outer loop
      vertex -7.619359e+00 4.571617e+00 7.619364e+00
      vertex 7.619358e+00 4.571617e+00 7.619364e+00
      vertex -7.619359e+00 1.981035e+01 7.619364e+00
    endloop
  endfacet
  facet normal 0.000000e+00 0.000000e+00 1.000000e+00
    outer loop
      vertex -7.619359e+00 4.571617e+00 7.619364e+00
      vertex 7.619358e+00 -3.047748e+00 7.619364e+00
      vertex 7.619358e+00 4.571617e+00 7.619364e+00
    endloop
  endfacet
  facet normal 0.000000e+00 0.000000e+00 1.000000e+00
    outer loop
      vertex 1.523872e+01 4.571617e+00 7.619364e+00
      vertex 1.523872e+01 1.219098e+01 7.619364e+00
      vertex 7.619358e+00 4.571617e+00 7.619364e+00
    endloop
  endfacet
  facet normal 0.000000e+00 0.000000e+00 1.000000e+00
    outer loop
      vertex 1.523872e+01 4.571617e+00 7.619364e+00
      vertex 2.285809e+01 4.571617e+00 7.619364e+00
      vertex 1.523872e+01 1.219098e+01 7.619364e+00
    endloop
  endfacet
  facet normal 0.000000e+00 0.000000e+00 1.000000e+00
    outer loop
      vertex 1.523872e+01 4.571617e+00 7.619364e+00
      vertex 1.523872e+01 -3.047748e+00 7.619364e+00
      vertex 2.285809e+01 4.571617e+00 7.619364e+00
    endloop
  endfacet
  facet normal 0.000000e+00 0.000000e+00 1.000000e+00
    outer loop
      vertex 2.285809e+01 4.571617e+00 7.619364e+00
      vertex 1.523872e+01 -3.047748e+00 7.619364e+00
      vertex 2.666777e+01 -1.066711e+01 7.619364e+00
    endloop
  endfacet
  facet normal 0.000000e+00 0.000000e+00 1.000000e+00
    outer loop
      vertex 3.047745e+01 4.571617e+00 7.619364e+00
      vertex 2.666777e+01 -1.066711e+01 7.619364e+00
      vertex 3.047745e+01 -1.066711e+01 7.619364e+00
    endloop
  endfacet
  facet normal 0.000000e+00 0.000000e+00 1.000000e+00
    outer loop
      vertex 3.047745e+01 4.571617e+00 7.619364e+00
      vertex 2.285809e+01 4.571617e+00 7.619364e+00
      vertex 2.666777e+01 -1.066711e+01 7.619364e+00
    endloop
  endfacet
  facet normal 0.000000e+00 0.000000e+00 1.000000e+00
    outer loop
      vertex 2.666777e+01 -1.066711e+01 7.619364e+00
      vertex 1.523872e+01 -3.047748e+00 7.619364e+00
      vertex 1.523872e+01 -1.066711e+01 7.619364e+00
    endloop
  endfacet
  facet normal 0.000000e+00 0.000000e+00 1.000000e+00
    outer loop
      vertex 1.904841e+01 -1.828648e+01 7.619364e+00
      vertex 1.523872e+01 -1.066711e+01 7.619364e+00
      vertex 1.523872e+01 -1.828648e+01 7.619364e+00
    endloop
  endfacet
  facet normal 0.000000e+00 0.000000e+00 1.000000e+00
    outer loop
      vertex 1.904841e+01 -1.828648e+01 7.619364e+00
      vertex 2.666777e+01 -1.066711e+01 7.619364e+00
      vertex 1.523872e+01 -1.066711e+01 7.619364e+00
    endloop
  endfacet
  facet normal 0.000000e+00 0.000000e+00 1.000000e+00
    outer loop
      vertex 1.904841e+01 -1.828648e+01 7.619364e+00
      vertex 2.666777e+01 -1.828648e+01 7.619364e+00
      vertex 2.666777e+01 -1.066711e+01 7.619364e+00
    endloop
  endfacet
  facet normal 0.000000e+00 0.000000e+00 1.000000e+00
    outer loop
      vertex 1.904841e+01 -1.828648e+01 7.619364e+00
      vertex 1.904841e+01 -2.590584e+01 7.619364e+00
      vertex 2.666777e+01 -1.828648e+01 7.619364e+00
    endloop
  endfacet
  facet normal 0.000000e+00 0.000000e+00 1.000000e+00
    outer loop
      vertex 2.666777e+01 -1.828648e+01 7.619364e+00
      vertex 1.904841e+01 -2.590584e+01 7.619364e+00
      vertex 2.666777e+01 -2.590584e+01 7.619364e+00
    endloop
  endfacet
  facet normal 0.000000e+00 0.000000e+00 1.000000e+00
    outer loop
      vertex 3.047745e+01 -2.590584e+01 7.619364e+00
      vertex 2.666777e+01 -1.828648e+01 7.619364e+00
      vertex 2.666777e+01 -2.590584e+01 7.619364e+00
    endloop
  endfacet
  facet normal 0.000000e+00 0.000000e+00 1.000000e+00
    outer loop
      vertex 3.047745e+01 -2.590584e+01 7.619364e+00
      vertex 3.047745e+01 -1.828648e+01 7.619364e+00
      vertex 2.666777e+01 -1.828648e+01 7.619364e+00
    endloop
  endfacet
  facet normal 0.000000e+00 0.000000e+00 1.000000e+00
    outer loop
      vertex -2.377389e+00 3.169655e+01 7.619364e+00
      vertex -3.809688e+00 2.742971e+01 7.619364e+00
      vertex -2.377389e+00 2.742971e+01 7.619364e+00
    endloop
  endfacet
  facet normal 0.000000e+00 0.000000e+00 1.000000e+00
    outer loop
      vertex -2.377389e+00 3.169655e+01 7.619364e+00
      vertex -3.809688e+00 3.352520e+01 7.619364e+00
      vertex -3.809688e+00 2.742971e+01 7.619364e+00
    endloop
  endfacet
  facet normal 0.000000e+00 0.000000e+00 1.000000e+00
    outer loop
      vertex -2.377389e+00 3.169655e+01 7.619364e+00
      vertex 2.376975e+00 3.169655e+01 7.619364e+00
      vertex -3.809688e+00 3.352520e+01 7.619364e+00
    endloop
  endfacet
  facet normal 0.000000e+00 0.000000e+00 1.000000e+00
    outer loop
      vertex -3.809688e+00 3.352520e+01 7.619364e+00
      vertex 2.376975e+00 3.169655e+01 7.619364e+00
      vertex 3.809676e+00 3.352520e+01 7.619364e+00
    endloop
  endfacet
  facet normal 0.000000e+00 0.000000e+00 1.000000e+00
    outer loop
      vertex 3.809676e+00 3.352520e+01 7.619364e+00
      vertex 2.376975e+00 3.169655e+01 7.619364e+00
      vertex 3.809676e+00 2.742971e+01 7.619364e+00
    endloop
  endfacet
  facet normal 0.000000e+00 0.000000e+00 1.000000e+00
    outer loop
      vertex 3.809676e+00 2.742971e+01 7.619364e+00
      vertex 2.376975e+00 3.169655e+01 7.619364e+00
      vertex 2.376975e+00 2.742971e+01 7.619364e+00
    endloop
  endfacet
  facet normal 0.000000e+00 0.000000e+00 1.000000e+00
    outer loop
      vertex 7.619358e+00 1.981035e+01 7.619364e+00
      vertex 2.376975e+00 2.742971e+01 7.619364e+00
      vertex -7.619359e+00 1.981035e+01 7.619364e+00
    endloop
  endfacet
  facet normal 0.000000e+00 0.000000e+00 1.000000e+00
    outer loop
      vertex 7.619358e+00 4.571617e+00 7.619364e+00
      vertex 7.619358e+00 1.981035e+01 7.619364e+00
      vertex -7.619359e+00 1.981035e+01 7.619364e+00
    endloop
  endfacet
  facet normal 0.000000e+00 0.000000e+00 1.000000e+00
    outer loop
      vertex 7.619358e+00 4.571617e+00 7.619364e+00
      vertex 1.523872e+01 1.219098e+01 7.619364e+00
      vertex 7.619358e+00 1.981035e+01 7.619364e+00
    endloop
  endfacet
  facet normal 0.000000e+00 0.000000e+00 1.000000e+00
    outer loop
      vertex 7.619358e+00 1.981035e+01 7.619364e+00
      vertex 1.523872e+01 1.219098e+01 7.619364e+00
      vertex 1.523872e+01 1.981035e+01 7.619364e+00
    endloop
  endfacet
  facet normal 0.000000e+00 0.000000e+00 1.000000e+00
    outer loop
      vertex 2.376975e+00 2.742971e+01 7.619364e+00
      vertex -2.377389e+00 2.742971e+01 7.619364e+00
      vertex -7.619359e+00 1.981035e+01 7.619364e+00
    endloop
  endfacet
  facet normal 0.000000e+00 0.000000e+00 1.000000e+00
    outer loop
      vertex -7.619359e+00 1.981035e+01 7.619364e+00
      vertex -2.377389e+00 2.742971e+01 7.619364e+00
      vertex -3.809688e+00 2.742971e+01 7.619364e+00
    endloop
  endfacet
  facet normal 0.000000e+00 0.000000e+00 1.000000e+00
    outer loop
      vertex -7.619359e+00 2.742971e+01 7.619364e+00
      vertex -7.619359e+00 1.981035e+01 7.619364e+00
      vertex -3.809688e+00 2.742971e+01 7.619364e+00
    endloop
  endfacet
  facet normal 0.000000e+00 0.000000e+00 1.000000e+00
    outer loop
      vertex -7.619359e+00 1.981035e+01 7.619364e+00
      vertex -1.523872e+01 1.981035e+01 7.619364e+00
      vertex -1.523872e+01 1.219098e+01 7.619364e+00
    endloop
  endfacet
  facet normal 0.000000e+00 0.000000e+00 1.000000e+00
    outer loop
      vertex -1.523872e+01 1.219098e+01 7.619364e+00
      vertex -2.285809e+01 1.219098e+01 7.619364e+00
      vertex -1.523872e+01 4.571617e+00 7.619364e+00
    endloop
  endfacet
  facet normal 0.000000e+00 0.000000e+00 1.000000e+00
    outer loop
      vertex -1.523872e+01 4.571617e+00 7.619364e+00
      vertex -2.285809e+01 1.219098e+01 7.619364e+00
      vertex -2.285809e+01 4.571617e+00 7.619364e+00
    endloop
  endfacet
  facet normal 0.000000e+00 0.000000e+00 1.000000e+00
    outer loop
      vertex -1.523872e+01 -3.047748e+00 7.619364e+00
      vertex -1.523872e+01 4.571617e+00 7.619364e+00
      vertex -2.285809e+01 4.571617e+00 7.619364e+00
    endloop
  endfacet
  facet normal 0.000000e+00 0.000000e+00 1.000000e+00
    outer loop
      vertex -1.523872e+01 -1.066711e+01 7.619364e+00
      vertex -2.666777e+01 -1.066711e+01 7.619364e+00
      vertex -1.904841e+01 -1.828648e+01 7.619364e+00
    endloop
  endfacet
  facet normal 0.000000e+00 0.000000e+00 1.000000e+00
    outer loop
      vertex -1.523872e+01 -1.828648e+01 7.619364e+00
      vertex -1.523872e+01 -1.066711e+01 7.619364e+00
      vertex -1.904841e+01 -1.828648e+01 7.619364e+00
    endloop
  endfacet
  facet normal 0.000000e+00 0.000000e+00 1.000000e+00
    outer loop
      vertex -3.047745e+01 -1.828648e+01 7.619364e+00
      vertex -3.047745e+01 -2.590584e+01 7.619364e+00
      vertex -2.666777e+01 -1.828648e+01 7.619364e+00
    endloop
  endfacet
  facet normal 0.000000e+00 0.000000e+00 1.000000e+00
    outer loop
      vertex -2.666777e+01 -1.828648e+01 7.619364e+00
      vertex -3.047745e+01 -2.590584e+01 7.619364e+00
      vertex -2.666777e+01 -2.590584e+01 7.619364e+00
    endloop
  endfacet
  facet normal 0.000000e+00 0.000000e+00 1.000000e+00
    outer loop
      vertex -1.904841e+01 -2.590584e+01 7.619364e+00
      vertex -1.904841e+01 -1.828648e+01 7.619364e+00
      vertex -2.666777e+01 -1.828648e+01 7.619364e+00
    endloop
  endfacet
  facet normal 0.000000e+00 0.000000e+00 1.000000e+00
    outer loop
      vertex -7.619359e+00 -1.828648e+01 7.619364e+00
      vertex 7.619358e+00 -1.828648e+01 7.619364e+00
      vertex -7.619359e+00 -1.066711e+01 7.619364e+00
    endloop
  endfacet
  facet normal 0.000000e+00 0.000000e+00 1.000000e+00
    outer loop
      vertex -7.619359e+00 -1.066711e+01 7.619364e+00
      vertex 7.619358e+00 -1.828648e+01 7.619364e+00
      vertex 7.619358e+00 -1.066711e+01 7.619364e+00
    endloop
  endfacet
  facet normal 0.000000e+00 0.000000e+00 1.000000e+00
    outer loop
      vertex 7.619358e+00 -1.066711e+01 7.619364e+00
      vertex 1.523872e+01 -1.066711e+01 7.619364e+00
      vertex 7.619358e+00 -3.047748e+00 7.619364e+00
    endloop
  endfacet
  facet normal 0.000000e+00 0.000000e+00 1.000000e+00
    outer loop
      vertex 7.619358e+00 -3.047748e+00 7.619364e+00
      vertex 1.523872e+01 -1.066711e+01 7.619364e+00
      vertex 1.523872e+01 -3.047748e+00 7.619364e+00
    endloop
  endfacet
  facet normal 0.000000e+00 0.000000e+00 1.000000e+00
    outer loop
      vertex 1.523872e+01 -2.590584e+01 7.619364e+00
      vertex 1.523872e+01 -3.352520e+01 7.619364e+00
      vertex 1.904841e+01 -2.590584e+01 7.619364e+00
    endloop
  endfacet
  facet normal 0.000000e+00 0.000000e+00 1.000000e+00
    outer loop
      vertex 1.904841e+01 -2.590584e+01 7.619364e+00
      vertex 1.523872e+01 -3.352520e+01 7.619364e+00
      vertex 2.666777e+01 -3.352520e+01 7.619364e+00
    endloop
  endfacet
  facet normal 0.000000e+00 0.000000e+00 1.000000e+00
    outer loop
      vertex 2.666777e+01 -2.590584e+01 7.619364e+00
      vertex 1.904841e+01 -2.590584e+01 7.619364e+00
      vertex 2.666777e+01 -3.352520e+01 7.619364e+00
    endloop
  endfacet
  facet normal 0.000000e+00 0.000000e+00 1.000000e+00
    outer loop
      vertex 2.285809e+01 4.571617e+00 7.619364e+00
      vertex 2.285809e+01 1.219098e+01 7.619364e+00
      vertex 1.523872e+01 1.219098e+01 7.619364e+00
    endloop
  endfacet
  facet normal 0.000000e+00 0.000000e+00 1.000000e+00
    outer loop
      vertex 7.619358e+00 2.742971e+01 7.619364e+00
      vertex 3.809676e+00 2.742971e+01 7.619364e+00
      vertex 7.619358e+00 1.981035e+01 7.619364e+00
    endloop
  endfacet
  facet normal 0.000000e+00 0.000000e+00 1.000000e+00
    outer loop
      vertex 7.619358e+00 1.981035e+01 7.619364e+00
      vertex 3.809676e+00 2.742971e+01 7.619364e+00
      vertex 2.376975e+00 2.742971e+01 7.619364e+00
    endloop
  endfacet
endsolid Default
