solid Default
  facet normal 4.440892e-16 1.000000e+00 0.000000e+00
    outer loop
      vertex 9.525005e+00 -4.762499e+00 4.762500e+00
      vertex 9.525005e+00 -4.762499e+00 0.000000e+00
      vertex 4.762506e+00 -4.762499e+00 4.762500e+00
    endloop
  endfacet
  facet normal 4.440892e-16 1.000000e+00 0.000000e+00
    outer loop
      vertex 4.762506e+00 -4.762499e+00 4.762500e+00
      vertex 9.525005e+00 -4.762499e+00 0.000000e+00
      vertex 4.762506e+00 -4.762499e+00 0.000000e+00
    endloop
  endfacet
  facet normal 1.000000e+00 -4.440892e-16 0.000000e+00
    outer loop
      vertex 4.762506e+00 -4.762499e+00 4.762500e+00
      vertex 4.762506e+00 -4.762499e+00 0.000000e+00
      vertex 4.762506e+00 1.490116e-06 4.762500e+00
    endloop
  endfacet
  facet normal 1.000000e+00 -4.440892e-16 0.000000e+00
    outer loop
      vertex 4.762506e+00 1.490116e-06 4.762500e+00
      vertex 4.762506e+00 -4.762499e+00 0.000000e+00
      vertex 4.762506e+00 1.490116e-06 0.000000e+00
    endloop
  endfacet
  facet normal 0.000000e+00 -1.000000e+00 0.000000e+00
    outer loop
      vertex 4.762506e+00 1.490116e-06 4.762500e+00
      vertex 4.762506e+00 1.490116e-06 0.000000e+00
      vertex 9.525005e+00 1.490116e-06 4.762500e+00
    endloop
  endfacet
  facet normal 0.000000e+00 -1.000000e+00 0.000000e+00
    outer loop
      vertex 9.525005e+00 1.490116e-06 4.762500e+00
      vertex 4.762506e+00 1.490116e-06 0.000000e+00
      vertex 9.525005e+00 1.490116e-06 0.000000e+00
    endloop
  endfacet
  facet normal -1.000000e+00 -0.000000e+00 -0.000000e+00
    outer loop
      vertex 9.525005e+00 1.490116e-06 4.762500e+00
      vertex 9.525005e+00 1.490116e-06 0.000000e+00
      vertex 9.525005e+00 -4.762499e+00 4.762500e+00
    endloop
  endfacet
  facet normal -1.000000e+00 -0.000000e+00 -0.000000e+00
    outer loop
      vertex 9.525005e+00 -4.762499e+00 4.762500e+00
      vertex 9.525005e+00 1.490116e-06 0.000000e+00
      vertex 9.525005e+00 -4.762499e+00 0.000000e+00
    endloop
  endfacet
  facet normal -1.000000e+00 -3.330669e-16 -0.000000e+00
    outer loop
      vertex -4.762495e+00 1.490116e-06 4.762500e+00
      vertex -4.762495e+00 1.490116e-06 0.000000e+00
      vertex -4.762495e+00 -4.762499e+00 4.762500e+00
    endloop
  endfacet
  facet normal -1.000000e+00 -3.330669e-16 0.000000e+00
    outer loop
      vertex -4.762495e+00 -4.762499e+00 4.762500e+00
      vertex -4.762495e+00 1.490116e-06 0.000000e+00
      vertex -4.762495e+00 -4.762499e+00 0.000000e+00
    endloop
  endfacet
  facet normal -4.440892e-16 1.000000e+00 0.000000e+00
    outer loop
      vertex -4.762495e+00 -4.762499e+00 4.762500e+00
      vertex -4.762495e+00 -4.762499e+00 0.000000e+00
      vertex -9.524994e+00 -4.762499e+00 4.762500e+00
    endloop
  endfacet
  facet normal -4.440892e-16 1.000000e+00 0.000000e+00
    outer loop
      vertex -9.524994e+00 -4.762499e+00 4.762500e+00
      vertex -4.762495e+00 -4.762499e+00 0.000000e+00
      vertex -9.524994e+00 -4.762499e+00 0.000000e+00
    endloop
  endfacet
  facet normal 1.000000e+00 1.110223e-16 0.000000e+00
    outer loop
      vertex -9.524994e+00 -4.762499e+00 4.762500e+00
      vertex -9.524994e+00 -4.762499e+00 0.000000e+00
      vertex -9.524994e+00 1.490116e-06 4.762500e+00
    endloop
  endfacet
  facet normal 1.000000e+00 1.110223e-16 0.000000e+00
    outer loop
      vertex -9.524994e+00 1.490116e-06 4.762500e+00
      vertex -9.524994e+00 -4.762499e+00 0.000000e+00
      vertex -9.524994e+00 1.490116e-06 0.000000e+00
    endloop
  endfacet
  facet normal 0.000000e+00 -1.000000e+00 0.000000e+00
    outer loop
      vertex -9.524994e+00 1.490116e-06 4.762500e+00
      vertex -9.524994e+00 1.490116e-06 0.000000e+00
      vertex -4.762495e+00 1.490116e-06 4.762500e+00
    endloop
  endfacet
  facet normal 0.000000e+00 -1.000000e+00 0.000000e+00
    outer loop
      vertex -4.762495e+00 1.490116e-06 4.762500e+00
      vertex -9.524994e+00 1.490116e-06 0.000000e+00
      vertex -4.762495e+00 1.490116e-06 0.000000e+00
    endloop
  endfacet
  facet normal 0.000000e+00 -1.000000e+00 0.000000e+00
    outer loop
      vertex 1.905000e+01 1.490116e-06 4.762500e+00
      vertex 1.905000e+01 1.490116e-06 0.000000e+00
      vertex 2.381250e+01 1.490116e-06 4.762500e+00
    endloop
  endfacet
  facet normal 0.000000e+00 -1.000000e+00 0.000000e+00
    outer loop
      vertex 2.381250e+01 1.490116e-06 4.762500e+00
      vertex 1.905000e+01 1.490116e-06 0.000000e+00
      vertex 2.381250e+01 1.490116e-06 0.000000e+00
    endloop
  endfacet
  facet normal -1.000000e+00 -0.000000e+00 -0.000000e+00
    outer loop
      vertex 2.381250e+01 1.490116e-06 4.762500e+00
      vertex 2.381250e+01 1.490116e-06 0.000000e+00
      vertex 2.381250e+01 -4.762499e+00 4.762500e+00
    endloop
  endfacet
  facet normal -1.000000e+00 -0.000000e+00 -0.000000e+00
    outer loop
      vertex 2.381250e+01 -4.762499e+00 4.762500e+00
      vertex 2.381250e+01 1.490116e-06 0.000000e+00
      vertex 2.381250e+01 -4.762499e+00 0.000000e+00
    endloop
  endfacet
  facet normal 0.000000e+00 1.000000e+00 0.000000e+00
    outer loop
      vertex 2.381250e+01 -4.762499e+00 4.762500e+00
      vertex 2.381250e+01 -4.762499e+00 0.000000e+00
      vertex 1.905000e+01 -4.762499e+00 4.762500e+00
    endloop
  endfacet
  facet normal 0.000000e+00 1.000000e+00 0.000000e+00
    outer loop
      vertex 1.905000e+01 -4.762499e+00 4.762500e+00
      vertex 2.381250e+01 -4.762499e+00 0.000000e+00
      vertex 1.905000e+01 -4.762499e+00 0.000000e+00
    endloop
  endfacet
  facet normal 1.000000e+00 0.000000e+00 0.000000e+00
    outer loop
      vertex 1.905000e+01 -4.762499e+00 4.762500e+00
      vertex 1.905000e+01 -4.762499e+00 0.000000e+00
      vertex 1.905000e+01 1.490116e-06 4.762500e+00
    endloop
  endfacet
  facet normal 1.000000e+00 0.000000e+00 0.000000e+00
    outer loop
      vertex 1.905000e+01 1.490116e-06 4.762500e+00
      vertex 1.905000e+01 -4.762499e+00 0.000000e+00
      vertex 1.905000e+01 1.490116e-06 0.000000e+00
    endloop
  endfacet
  facet normal -1.000000e+00 -0.000000e+00 -0.000000e+00
    outer loop
      vertex -1.904999e+01 1.490116e-06 4.762500e+00
      vertex -1.904999e+01 1.490116e-06 0.000000e+00
      vertex -1.904999e+01 -4.762499e+00 4.762500e+00
    endloop
  endfacet
  facet normal -1.000000e+00 -0.000000e+00 -0.000000e+00
    outer loop
      vertex -1.904999e+01 -4.762499e+00 4.762500e+00
      vertex -1.904999e+01 1.490116e-06 0.000000e+00
      vertex -1.904999e+01 -4.762499e+00 0.000000e+00
    endloop
  endfacet
  facet normal 0.000000e+00 1.000000e+00 0.000000e+00
    outer loop
      vertex -1.904999e+01 -4.762499e+00 4.762500e+00
      vertex -1.904999e+01 -4.762499e+00 0.000000e+00
      vertex -2.381249e+01 -4.762499e+00 4.762500e+00
    endloop
  endfacet
  facet normal 0.000000e+00 1.000000e+00 0.000000e+00
    outer loop
      vertex -2.381249e+01 -4.762499e+00 4.762500e+00
      vertex -1.904999e+01 -4.762499e+00 0.000000e+00
      vertex -2.381249e+01 -4.762499e+00 0.000000e+00
    endloop
  endfacet
  facet normal 1.000000e+00 0.000000e+00 0.000000e+00
    outer loop
      vertex -2.381249e+01 -4.762499e+00 4.762500e+00
      vertex -2.381249e+01 -4.762499e+00 0.000000e+00
      vertex -2.381249e+01 1.490116e-06 4.762500e+00
    endloop
  endfacet
  facet normal 1.000000e+00 0.000000e+00 0.000000e+00
    outer loop
      vertex -2.381249e+01 1.490116e-06 4.762500e+00
      vertex -2.381249e+01 -4.762499e+00 0.000000e+00
      vertex -2.381249e+01 1.490116e-06 0.000000e+00
    endloop
  endfacet
  facet normal 0.000000e+00 -1.000000e+00 0.000000e+00
    outer loop
      vertex -2.381249e+01 1.490116e-06 4.762500e+00
      vertex -2.381249e+01 1.490116e-06 0.000000e+00
      vertex -1.904999e+01 1.490116e-06 4.762500e+00
    endloop
  endfacet
  facet normal 0.000000e+00 -1.000000e+00 0.000000e+00
    outer loop
      vertex -1.904999e+01 1.490116e-06 4.762500e+00
      vertex -2.381249e+01 1.490116e-06 0.000000e+00
      vertex -1.904999e+01 1.490116e-06 0.000000e+00
    endloop
  endfacet
  facet normal 1.000000e+00 0.000000e+00 0.000000e+00
    outer loop
      vertex -2.381244e+00 1.428750e+01 4.762500e+00
      vertex -2.381244e+00 1.428750e+01 0.000000e+00
      vertex -2.381244e+00 1.714500e+01 4.762500e+00
    endloop
  endfacet
  facet normal 1.000000e+00 0.000000e+00 0.000000e+00
    outer loop
      vertex -2.381244e+00 1.714500e+01 4.762500e+00
      vertex -2.381244e+00 1.428750e+01 0.000000e+00
      vertex -2.381244e+00 1.714500e+01 0.000000e+00
    endloop
  endfacet
  facet normal 0.000000e+00 -1.000000e+00 0.000000e+00
    outer loop
      vertex -2.381244e+00 1.714500e+01 4.762500e+00
      vertex -2.381244e+00 1.714500e+01 0.000000e+00
      vertex 2.381256e+00 1.714500e+01 4.762500e+00
    endloop
  endfacet
  facet normal 0.000000e+00 -1.000000e+00 0.000000e+00
    outer loop
      vertex 2.381256e+00 1.714500e+01 4.762500e+00
      vertex -2.381244e+00 1.714500e+01 0.000000e+00
      vertex 2.381256e+00 1.714500e+01 0.000000e+00
    endloop
  endfacet
  facet normal -1.000000e+00 -0.000000e+00 -0.000000e+00
    outer loop
      vertex 2.381256e+00 1.714500e+01 4.762500e+00
      vertex 2.381256e+00 1.714500e+01 0.000000e+00
      vertex 2.381256e+00 1.428750e+01 4.762500e+00
    endloop
  endfacet
  facet normal -1.000000e+00 -0.000000e+00 -0.000000e+00
    outer loop
      vertex 2.381256e+00 1.428750e+01 4.762500e+00
      vertex 2.381256e+00 1.714500e+01 0.000000e+00
      vertex 2.381256e+00 1.428750e+01 0.000000e+00
    endloop
  endfacet
  facet normal 0.000000e+00 1.000000e+00 0.000000e+00
    outer loop
      vertex 2.381256e+00 1.428750e+01 4.762500e+00
      vertex 2.381256e+00 1.428750e+01 0.000000e+00
      vertex -2.381244e+00 1.428750e+01 4.762500e+00
    endloop
  endfacet
  facet normal 0.000000e+00 1.000000e+00 0.000000e+00
    outer loop
      vertex -2.381244e+00 1.428750e+01 4.762500e+00
      vertex 2.381256e+00 1.428750e+01 0.000000e+00
      vertex -2.381244e+00 1.428750e+01 0.000000e+00
    endloop
  endfacet
  facet normal 4.440892e-16 1.000000e+00 0.000000e+00
    outer loop
      vertex 4.762506e+00 1.428750e+01 0.000000e+00
      vertex 4.762506e+00 1.428750e+01 4.762500e+00
      vertex 1.428750e+01 1.428750e+01 0.000000e+00
    endloop
  endfacet
  facet normal 4.440892e-16 1.000000e+00 0.000000e+00
    outer loop
      vertex 1.428750e+01 1.428750e+01 0.000000e+00
      vertex 4.762506e+00 1.428750e+01 4.762500e+00
      vertex 1.428750e+01 1.428750e+01 4.762500e+00
    endloop
  endfacet
  facet normal -4.440892e-16 1.000000e+00 0.000000e+00
    outer loop
      vertex -4.762495e+00 1.428750e+01 4.762500e+00
      vertex -4.762495e+00 1.428750e+01 0.000000e+00
      vertex -1.428749e+01 1.428750e+01 4.762500e+00
    endloop
  endfacet
  facet normal -4.440892e-16 1.000000e+00 0.000000e+00
    outer loop
      vertex -1.428749e+01 1.428750e+01 4.762500e+00
      vertex -4.762495e+00 1.428750e+01 0.000000e+00
      vertex -1.428749e+01 1.428750e+01 0.000000e+00
    endloop
  endfacet
  facet normal 1.000000e+00 -8.881784e-16 0.000000e+00
    outer loop
      vertex 1.428750e+01 9.525000e+00 4.762500e+00
      vertex 1.428750e+01 9.525000e+00 0.000000e+00
      vertex 1.428750e+01 1.428750e+01 4.762500e+00
    endloop
  endfacet
  facet normal 1.000000e+00 -8.881784e-16 0.000000e+00
    outer loop
      vertex 1.428750e+01 1.428750e+01 4.762500e+00
      vertex 1.428750e+01 9.525000e+00 0.000000e+00
      vertex 1.428750e+01 1.428750e+01 0.000000e+00
    endloop
  endfacet
  facet normal -4.440892e-16 1.000000e+00 0.000000e+00
    outer loop
      vertex 2.381250e+01 9.525000e+00 4.762500e+00
      vertex 2.381250e+01 9.525000e+00 0.000000e+00
      vertex 1.428750e+01 9.525000e+00 4.762500e+00
    endloop
  endfacet
  facet normal -4.440892e-16 1.000000e+00 0.000000e+00
    outer loop
      vertex 1.428750e+01 9.525000e+00 4.762500e+00
      vertex 2.381250e+01 9.525000e+00 0.000000e+00
      vertex 1.428750e+01 9.525000e+00 0.000000e+00
    endloop
  endfacet
  facet normal 1.000000e+00 -1.776357e-15 0.000000e+00
    outer loop
      vertex 2.381250e+01 4.762503e+00 4.762500e+00
      vertex 2.381250e+01 4.762503e+00 0.000000e+00
      vertex 2.381250e+01 9.525000e+00 4.762500e+00
    endloop
  endfacet
  facet normal 1.000000e+00 -1.776357e-15 0.000000e+00
    outer loop
      vertex 2.381250e+01 9.525000e+00 4.762500e+00
      vertex 2.381250e+01 4.762503e+00 0.000000e+00
      vertex 2.381250e+01 9.525000e+00 0.000000e+00
    endloop
  endfacet
  facet normal 0.000000e+00 1.000000e+00 0.000000e+00
    outer loop
      vertex 2.857500e+01 4.762503e+00 4.762500e+00
      vertex 2.857500e+01 4.762503e+00 0.000000e+00
      vertex 2.381250e+01 4.762503e+00 4.762500e+00
    endloop
  endfacet
  facet normal 0.000000e+00 1.000000e+00 0.000000e+00
    outer loop
      vertex 2.381250e+01 4.762503e+00 4.762500e+00
      vertex 2.857500e+01 4.762503e+00 0.000000e+00
      vertex 2.381250e+01 4.762503e+00 0.000000e+00
    endloop
  endfacet
  facet normal 1.000000e+00 -8.881784e-16 0.000000e+00
    outer loop
      vertex 2.857500e+01 1.490116e-06 4.762500e+00
      vertex 2.857500e+01 1.490116e-06 0.000000e+00
      vertex 2.857500e+01 4.762503e+00 4.762500e+00
    endloop
  endfacet
  facet normal 1.000000e+00 -8.881784e-16 0.000000e+00
    outer loop
      vertex 2.857500e+01 4.762503e+00 4.762500e+00
      vertex 2.857500e+01 1.490116e-06 0.000000e+00
      vertex 2.857500e+01 4.762503e+00 0.000000e+00
    endloop
  endfacet
  facet normal 0.000000e+00 1.000000e+00 0.000000e+00
    outer loop
      vertex 3.333750e+01 1.490116e-06 4.762500e+00
      vertex 3.333750e+01 1.490116e-06 0.000000e+00
      vertex 2.857500e+01 1.490116e-06 4.762500e+00
    endloop
  endfacet
  facet normal 0.000000e+00 1.000000e+00 0.000000e+00
    outer loop
      vertex 2.857500e+01 1.490116e-06 4.762500e+00
      vertex 3.333750e+01 1.490116e-06 0.000000e+00
      vertex 2.857500e+01 1.490116e-06 0.000000e+00
    endloop
  endfacet
  facet normal 1.000000e+00 -1.776357e-15 0.000000e+00
    outer loop
      vertex 3.333750e+01 -4.762499e+00 4.762500e+00
      vertex 3.333750e+01 -4.762499e+00 0.000000e+00
      vertex 3.333750e+01 1.490116e-06 4.762500e+00
    endloop
  endfacet
  facet normal 1.000000e+00 -1.776357e-15 0.000000e+00
    outer loop
      vertex 3.333750e+01 1.490116e-06 4.762500e+00
      vertex 3.333750e+01 -4.762499e+00 0.000000e+00
      vertex 3.333750e+01 1.490116e-06 0.000000e+00
    endloop
  endfacet
  facet normal 0.000000e+00 1.000000e+00 0.000000e+00
    outer loop
      vertex 3.810000e+01 -4.762499e+00 4.762500e+00
      vertex 3.810000e+01 -4.762499e+00 0.000000e+00
      vertex 3.333750e+01 -4.762499e+00 4.762500e+00
    endloop
  endfacet
  facet normal 0.000000e+00 1.000000e+00 0.000000e+00
    outer loop
      vertex 3.333750e+01 -4.762499e+00 4.762500e+00
      vertex 3.810000e+01 -4.762499e+00 0.000000e+00
      vertex 3.333750e+01 -4.762499e+00 0.000000e+00
    endloop
  endfacet
  facet normal 1.000000e+00 0.000000e+00 0.000000e+00
    outer loop
      vertex 3.810000e+01 -9.524999e+00 4.762500e+00
      vertex 3.810000e+01 -9.524999e+00 0.000000e+00
      vertex 3.810000e+01 -4.762499e+00 4.762500e+00
    endloop
  endfacet
  facet normal 1.000000e+00 0.000000e+00 0.000000e+00
    outer loop
      vertex 3.810000e+01 -4.762499e+00 4.762500e+00
      vertex 3.810000e+01 -9.524999e+00 0.000000e+00
      vertex 3.810000e+01 -4.762499e+00 0.000000e+00
    endloop
  endfacet
  facet normal -3.330669e-16 -1.000000e+00 -0.000000e+00
    outer loop
      vertex 2.857500e+01 -9.524999e+00 4.762500e+00
      vertex 2.857500e+01 -9.524999e+00 0.000000e+00
      vertex 3.810000e+01 -9.524999e+00 4.762500e+00
    endloop
  endfacet
  facet normal -3.330669e-16 -1.000000e+00 0.000000e+00
    outer loop
      vertex 3.810000e+01 -9.524999e+00 4.762500e+00
      vertex 2.857500e+01 -9.524999e+00 0.000000e+00
      vertex 3.810000e+01 -9.524999e+00 0.000000e+00
    endloop
  endfacet
  facet normal 1.000000e+00 0.000000e+00 0.000000e+00
    outer loop
      vertex 2.857500e+01 -1.428750e+01 4.762500e+00
      vertex 2.857500e+01 -1.428750e+01 0.000000e+00
      vertex 2.857500e+01 -9.524999e+00 4.762500e+00
    endloop
  endfacet
  facet normal 1.000000e+00 0.000000e+00 0.000000e+00
    outer loop
      vertex 2.857500e+01 -9.524999e+00 4.762500e+00
      vertex 2.857500e+01 -1.428750e+01 0.000000e+00
      vertex 2.857500e+01 -9.524999e+00 0.000000e+00
    endloop
  endfacet
  facet normal -2.220446e-16 -1.000000e+00 -0.000000e+00
    outer loop
      vertex 2.381250e+01 -1.428750e+01 4.762500e+00
      vertex 2.381250e+01 -1.428750e+01 0.000000e+00
      vertex 2.857500e+01 -1.428750e+01 4.762500e+00
    endloop
  endfacet
  facet normal -2.220446e-16 -1.000000e+00 0.000000e+00
    outer loop
      vertex 2.857500e+01 -1.428750e+01 4.762500e+00
      vertex 2.381250e+01 -1.428750e+01 0.000000e+00
      vertex 2.857500e+01 -1.428750e+01 0.000000e+00
    endloop
  endfacet
  facet normal 1.000000e+00 0.000000e+00 0.000000e+00
    outer loop
      vertex 2.381250e+01 -1.905000e+01 4.762500e+00
      vertex 2.381250e+01 -1.905000e+01 0.000000e+00
      vertex 2.381250e+01 -1.428750e+01 4.762500e+00
    endloop
  endfacet
  facet normal 1.000000e+00 0.000000e+00 0.000000e+00
    outer loop
      vertex 2.381250e+01 -1.428750e+01 4.762500e+00
      vertex 2.381250e+01 -1.905000e+01 0.000000e+00
      vertex 2.381250e+01 -1.428750e+01 0.000000e+00
    endloop
  endfacet
  facet normal -3.330669e-16 -1.000000e+00 -0.000000e+00
    outer loop
      vertex 1.905000e+01 -1.905000e+01 4.762500e+00
      vertex 1.905000e+01 -1.905000e+01 0.000000e+00
      vertex 2.381250e+01 -1.905000e+01 4.762500e+00
    endloop
  endfacet
  facet normal -3.330669e-16 -1.000000e+00 0.000000e+00
    outer loop
      vertex 2.381250e+01 -1.905000e+01 4.762500e+00
      vertex 1.905000e+01 -1.905000e+01 0.000000e+00
      vertex 2.381250e+01 -1.905000e+01 0.000000e+00
    endloop
  endfacet
  facet normal -1.000000e+00 -0.000000e+00 -0.000000e+00
    outer loop
      vertex 1.905000e+01 -1.428750e+01 4.762500e+00
      vertex 1.905000e+01 -1.428750e+01 0.000000e+00
      vertex 1.905000e+01 -1.905000e+01 4.762500e+00
    endloop
  endfacet
  facet normal -1.000000e+00 -0.000000e+00 -0.000000e+00
    outer loop
      vertex 1.905000e+01 -1.905000e+01 4.762500e+00
      vertex 1.905000e+01 -1.428750e+01 0.000000e+00
      vertex 1.905000e+01 -1.905000e+01 0.000000e+00
    endloop
  endfacet
  facet normal -2.775558e-16 -1.000000e+00 -0.000000e+00
    outer loop
      vertex 1.428750e+01 -1.428750e+01 4.762500e+00
      vertex 1.428750e+01 -1.428750e+01 0.000000e+00
      vertex 1.905000e+01 -1.428750e+01 4.762500e+00
    endloop
  endfacet
  facet normal -2.775558e-16 -1.000000e+00 0.000000e+00
    outer loop
      vertex 1.905000e+01 -1.428750e+01 4.762500e+00
      vertex 1.428750e+01 -1.428750e+01 0.000000e+00
      vertex 1.905000e+01 -1.428750e+01 0.000000e+00
    endloop
  endfacet
  facet normal -1.000000e+00 -0.000000e+00 -0.000000e+00
    outer loop
      vertex 1.428750e+01 -9.524999e+00 4.762500e+00
      vertex 1.428750e+01 -9.524999e+00 0.000000e+00
      vertex 1.428750e+01 -1.428750e+01 4.762500e+00
    endloop
  endfacet
  facet normal -1.000000e+00 -0.000000e+00 -0.000000e+00
    outer loop
      vertex 1.428750e+01 -1.428750e+01 4.762500e+00
      vertex 1.428750e+01 -9.524999e+00 0.000000e+00
      vertex 1.428750e+01 -1.428750e+01 0.000000e+00
    endloop
  endfacet
  facet normal -3.330669e-16 -1.000000e+00 -0.000000e+00
    outer loop
      vertex 4.762506e+00 -9.524999e+00 4.762500e+00
      vertex 4.762506e+00 -9.524999e+00 0.000000e+00
      vertex 1.428750e+01 -9.524999e+00 4.762500e+00
    endloop
  endfacet
  facet normal -3.330669e-16 -1.000000e+00 0.000000e+00
    outer loop
      vertex 1.428750e+01 -9.524999e+00 4.762500e+00
      vertex 4.762506e+00 -9.524999e+00 0.000000e+00
      vertex 1.428750e+01 -9.524999e+00 0.000000e+00
    endloop
  endfacet
  facet normal 1.000000e+00 0.000000e+00 0.000000e+00
    outer loop
      vertex 4.762506e+00 -1.428750e+01 4.762500e+00
      vertex 4.762506e+00 -1.428750e+01 0.000000e+00
      vertex 4.762506e+00 -9.524999e+00 4.762500e+00
    endloop
  endfacet
  facet normal 1.000000e+00 0.000000e+00 0.000000e+00
    outer loop
      vertex 4.762506e+00 -9.524999e+00 4.762500e+00
      vertex 4.762506e+00 -1.428750e+01 0.000000e+00
      vertex 4.762506e+00 -9.524999e+00 0.000000e+00
    endloop
  endfacet
  facet normal 0.000000e+00 -1.000000e+00 0.000000e+00
    outer loop
      vertex -4.762495e+00 -1.428750e+01 4.762500e+00
      vertex -4.762495e+00 -1.428750e+01 0.000000e+00
      vertex 4.762506e+00 -1.428750e+01 4.762500e+00
    endloop
  endfacet
  facet normal 0.000000e+00 -1.000000e+00 0.000000e+00
    outer loop
      vertex 4.762506e+00 -1.428750e+01 4.762500e+00
      vertex -4.762495e+00 -1.428750e+01 0.000000e+00
      vertex 4.762506e+00 -1.428750e+01 0.000000e+00
    endloop
  endfacet
  facet normal -1.000000e+00 -2.220446e-16 -0.000000e+00
    outer loop
      vertex -4.762495e+00 -9.524999e+00 4.762500e+00
      vertex -4.762495e+00 -9.524999e+00 0.000000e+00
      vertex -4.762495e+00 -1.428750e+01 4.762500e+00
    endloop
  endfacet
  facet normal -1.000000e+00 -2.220446e-16 0.000000e+00
    outer loop
      vertex -4.762495e+00 -1.428750e+01 4.762500e+00
      vertex -4.762495e+00 -9.524999e+00 0.000000e+00
      vertex -4.762495e+00 -1.428750e+01 0.000000e+00
    endloop
  endfacet
  facet normal 3.330669e-16 -1.000000e+00 0.000000e+00
    outer loop
      vertex -1.428749e+01 -9.524999e+00 4.762500e+00
      vertex -1.428749e+01 -9.524999e+00 0.000000e+00
      vertex -4.762495e+00 -9.524999e+00 4.762500e+00
    endloop
  endfacet
  facet normal 3.330669e-16 -1.000000e+00 0.000000e+00
    outer loop
      vertex -4.762495e+00 -9.524999e+00 4.762500e+00
      vertex -1.428749e+01 -9.524999e+00 0.000000e+00
      vertex -4.762495e+00 -9.524999e+00 0.000000e+00
    endloop
  endfacet
  facet normal 1.000000e+00 4.440892e-16 0.000000e+00
    outer loop
      vertex -1.428749e+01 -1.428750e+01 4.762500e+00
      vertex -1.428749e+01 -1.428750e+01 0.000000e+00
      vertex -1.428749e+01 -9.524999e+00 4.762500e+00
    endloop
  endfacet
  facet normal 1.000000e+00 4.440892e-16 0.000000e+00
    outer loop
      vertex -1.428749e+01 -9.524999e+00 4.762500e+00
      vertex -1.428749e+01 -1.428750e+01 0.000000e+00
      vertex -1.428749e+01 -9.524999e+00 0.000000e+00
    endloop
  endfacet
  facet normal 2.775558e-16 -1.000000e+00 0.000000e+00
    outer loop
      vertex -1.904999e+01 -1.428750e+01 4.762500e+00
      vertex -1.904999e+01 -1.428750e+01 0.000000e+00
      vertex -1.428749e+01 -1.428750e+01 4.762500e+00
    endloop
  endfacet
  facet normal 2.775558e-16 -1.000000e+00 0.000000e+00
    outer loop
      vertex -1.428749e+01 -1.428750e+01 4.762500e+00
      vertex -1.904999e+01 -1.428750e+01 0.000000e+00
      vertex -1.428749e+01 -1.428750e+01 0.000000e+00
    endloop
  endfacet
  facet normal 1.000000e+00 0.000000e+00 0.000000e+00
    outer loop
      vertex -1.904999e+01 -1.905000e+01 4.762500e+00
      vertex -1.904999e+01 -1.905000e+01 0.000000e+00
      vertex -1.904999e+01 -1.428750e+01 4.762500e+00
    endloop
  endfacet
  facet normal 1.000000e+00 0.000000e+00 0.000000e+00
    outer loop
      vertex -1.904999e+01 -1.428750e+01 4.762500e+00
      vertex -1.904999e+01 -1.905000e+01 0.000000e+00
      vertex -1.904999e+01 -1.428750e+01 0.000000e+00
    endloop
  endfacet
  facet normal 3.330669e-16 -1.000000e+00 0.000000e+00
    outer loop
      vertex -2.381249e+01 -1.905000e+01 4.762500e+00
      vertex -2.381249e+01 -1.905000e+01 0.000000e+00
      vertex -1.904999e+01 -1.905000e+01 4.762500e+00
    endloop
  endfacet
  facet normal 3.330669e-16 -1.000000e+00 0.000000e+00
    outer loop
      vertex -1.904999e+01 -1.905000e+01 4.762500e+00
      vertex -2.381249e+01 -1.905000e+01 0.000000e+00
      vertex -1.904999e+01 -1.905000e+01 0.000000e+00
    endloop
  endfacet
  facet normal -1.000000e+00 -0.000000e+00 -0.000000e+00
    outer loop
      vertex -2.381249e+01 -1.428750e+01 4.762500e+00
      vertex -2.381249e+01 -1.428750e+01 0.000000e+00
      vertex -2.381249e+01 -1.905000e+01 4.762500e+00
    endloop
  endfacet
  facet normal -1.000000e+00 -0.000000e+00 -0.000000e+00
    outer loop
      vertex -2.381249e+01 -1.905000e+01 4.762500e+00
      vertex -2.381249e+01 -1.428750e+01 0.000000e+00
      vertex -2.381249e+01 -1.905000e+01 0.000000e+00
    endloop
  endfacet
  facet normal 2.220446e-16 -1.000000e+00 0.000000e+00
    outer loop
      vertex -2.857500e+01 -1.428750e+01 4.762500e+00
      vertex -2.857500e+01 -1.428750e+01 0.000000e+00
      vertex -2.381249e+01 -1.428750e+01 4.762500e+00
    endloop
  endfacet
  facet normal 2.220446e-16 -1.000000e+00 0.000000e+00
    outer loop
      vertex -2.381249e+01 -1.428750e+01 4.762500e+00
      vertex -2.857500e+01 -1.428750e+01 0.000000e+00
      vertex -2.381249e+01 -1.428750e+01 0.000000e+00
    endloop
  endfacet
  facet normal -1.000000e+00 -0.000000e+00 -0.000000e+00
    outer loop
      vertex -2.857500e+01 -9.524999e+00 4.762500e+00
      vertex -2.857500e+01 -9.524999e+00 0.000000e+00
      vertex -2.857500e+01 -1.428750e+01 4.762500e+00
    endloop
  endfacet
  facet normal -1.000000e+00 -0.000000e+00 -0.000000e+00
    outer loop
      vertex -2.857500e+01 -1.428750e+01 4.762500e+00
      vertex -2.857500e+01 -9.524999e+00 0.000000e+00
      vertex -2.857500e+01 -1.428750e+01 0.000000e+00
    endloop
  endfacet
  facet normal 3.330669e-16 -1.000000e+00 0.000000e+00
    outer loop
      vertex -3.810000e+01 -9.524999e+00 4.762500e+00
      vertex -3.810000e+01 -9.524999e+00 0.000000e+00
      vertex -2.857500e+01 -9.524999e+00 4.762500e+00
    endloop
  endfacet
  facet normal 3.330669e-16 -1.000000e+00 0.000000e+00
    outer loop
      vertex -2.857500e+01 -9.524999e+00 4.762500e+00
      vertex -3.810000e+01 -9.524999e+00 0.000000e+00
      vertex -2.857500e+01 -9.524999e+00 0.000000e+00
    endloop
  endfacet
  facet normal -1.000000e+00 -0.000000e+00 -0.000000e+00
    outer loop
      vertex -3.810000e+01 -4.762499e+00 4.762500e+00
      vertex -3.810000e+01 -4.762499e+00 0.000000e+00
      vertex -3.810000e+01 -9.524999e+00 4.762500e+00
    endloop
  endfacet
  facet normal -1.000000e+00 -0.000000e+00 -0.000000e+00
    outer loop
      vertex -3.810000e+01 -9.524999e+00 4.762500e+00
      vertex -3.810000e+01 -4.762499e+00 0.000000e+00
      vertex -3.810000e+01 -9.524999e+00 0.000000e+00
    endloop
  endfacet
  facet normal 0.000000e+00 1.000000e+00 0.000000e+00
    outer loop
      vertex -3.333750e+01 -4.762499e+00 4.762500e+00
      vertex -3.333750e+01 -4.762499e+00 0.000000e+00
      vertex -3.810000e+01 -4.762499e+00 4.762500e+00
    endloop
  endfacet
  facet normal 0.000000e+00 1.000000e+00 0.000000e+00
    outer loop
      vertex -3.810000e+01 -4.762499e+00 4.762500e+00
      vertex -3.333750e+01 -4.762499e+00 0.000000e+00
      vertex -3.810000e+01 -4.762499e+00 0.000000e+00
    endloop
  endfacet
  facet normal -1.000000e+00 -8.881784e-16 -0.000000e+00
    outer loop
      vertex -3.333750e+01 1.490116e-06 4.762500e+00
      vertex -3.333750e+01 1.490116e-06 0.000000e+00
      vertex -3.333750e+01 -4.762499e+00 4.762500e+00
    endloop
  endfacet
  facet normal -1.000000e+00 -8.881784e-16 0.000000e+00
    outer loop
      vertex -3.333750e+01 -4.762499e+00 4.762500e+00
      vertex -3.333750e+01 1.490116e-06 0.000000e+00
      vertex -3.333750e+01 -4.762499e+00 0.000000e+00
    endloop
  endfacet
  facet normal 0.000000e+00 1.000000e+00 0.000000e+00
    outer loop
      vertex -2.857500e+01 1.490116e-06 4.762500e+00
      vertex -2.857500e+01 1.490116e-06 0.000000e+00
      vertex -3.333750e+01 1.490116e-06 4.762500e+00
    endloop
  endfacet
  facet normal 0.000000e+00 1.000000e+00 0.000000e+00
    outer loop
      vertex -3.333750e+01 1.490116e-06 4.762500e+00
      vertex -2.857500e+01 1.490116e-06 0.000000e+00
      vertex -3.333750e+01 1.490116e-06 0.000000e+00
    endloop
  endfacet
  facet normal -1.000000e+00 -0.000000e+00 -0.000000e+00
    outer loop
      vertex -2.857500e+01 4.762503e+00 4.762500e+00
      vertex -2.857500e+01 4.762503e+00 0.000000e+00
      vertex -2.857500e+01 1.490116e-06 4.762500e+00
    endloop
  endfacet
  facet normal -1.000000e+00 -0.000000e+00 -0.000000e+00
    outer loop
      vertex -2.857500e+01 1.490116e-06 4.762500e+00
      vertex -2.857500e+01 4.762503e+00 0.000000e+00
      vertex -2.857500e+01 1.490116e-06 0.000000e+00
    endloop
  endfacet
  facet normal 0.000000e+00 1.000000e+00 0.000000e+00
    outer loop
      vertex -2.381249e+01 4.762503e+00 4.762500e+00
      vertex -2.381249e+01 4.762503e+00 0.000000e+00
      vertex -2.857500e+01 4.762503e+00 4.762500e+00
    endloop
  endfacet
  facet normal 0.000000e+00 1.000000e+00 0.000000e+00
    outer loop
      vertex -2.857500e+01 4.762503e+00 4.762500e+00
      vertex -2.381249e+01 4.762503e+00 0.000000e+00
      vertex -2.857500e+01 4.762503e+00 0.000000e+00
    endloop
  endfacet
  facet normal -1.000000e+00 -8.881784e-16 -0.000000e+00
    outer loop
      vertex -2.381249e+01 9.525000e+00 4.762500e+00
      vertex -2.381249e+01 9.525000e+00 0.000000e+00
      vertex -2.381249e+01 4.762503e+00 4.762500e+00
    endloop
  endfacet
  facet normal -1.000000e+00 -8.881784e-16 0.000000e+00
    outer loop
      vertex -2.381249e+01 4.762503e+00 4.762500e+00
      vertex -2.381249e+01 9.525000e+00 0.000000e+00
      vertex -2.381249e+01 4.762503e+00 0.000000e+00
    endloop
  endfacet
  facet normal 4.440892e-16 1.000000e+00 0.000000e+00
    outer loop
      vertex -1.428749e+01 9.525000e+00 4.762500e+00
      vertex -1.428749e+01 9.525000e+00 0.000000e+00
      vertex -2.381249e+01 9.525000e+00 4.762500e+00
    endloop
  endfacet
  facet normal 4.440892e-16 1.000000e+00 0.000000e+00
    outer loop
      vertex -2.381249e+01 9.525000e+00 4.762500e+00
      vertex -1.428749e+01 9.525000e+00 0.000000e+00
      vertex -2.381249e+01 9.525000e+00 0.000000e+00
    endloop
  endfacet
  facet normal -1.000000e+00 -4.440892e-16 -0.000000e+00
    outer loop
      vertex -1.428749e+01 1.428750e+01 4.762500e+00
      vertex -1.428749e+01 1.428750e+01 0.000000e+00
      vertex -1.428749e+01 9.525000e+00 4.762500e+00
    endloop
  endfacet
  facet normal -1.000000e+00 -4.440892e-16 0.000000e+00
    outer loop
      vertex -1.428749e+01 9.525000e+00 4.762500e+00
      vertex -1.428749e+01 1.428750e+01 0.000000e+00
      vertex -1.428749e+01 9.525000e+00 0.000000e+00
    endloop
  endfacet
  facet normal -1.000000e+00 -5.551116e-16 -0.000000e+00
    outer loop
      vertex -4.762495e+00 1.905000e+01 4.762500e+00
      vertex -4.762495e+00 1.905000e+01 0.000000e+00
      vertex -4.762495e+00 1.428750e+01 4.762500e+00
    endloop
  endfacet
  facet normal -1.000000e+00 -5.551116e-16 0.000000e+00
    outer loop
      vertex -4.762495e+00 1.428750e+01 4.762500e+00
      vertex -4.762495e+00 1.905000e+01 0.000000e+00
      vertex -4.762495e+00 1.428750e+01 0.000000e+00
    endloop
  endfacet
  facet normal 0.000000e+00 1.000000e+00 0.000000e+00
    outer loop
      vertex 4.762506e+00 1.905000e+01 4.762500e+00
      vertex 4.762506e+00 1.905000e+01 0.000000e+00
      vertex -4.762495e+00 1.905000e+01 4.762500e+00
    endloop
  endfacet
  facet normal 0.000000e+00 1.000000e+00 0.000000e+00
    outer loop
      vertex -4.762495e+00 1.905000e+01 4.762500e+00
      vertex 4.762506e+00 1.905000e+01 0.000000e+00
      vertex -4.762495e+00 1.905000e+01 0.000000e+00
    endloop
  endfacet
  facet normal 1.000000e+00 8.881784e-16 0.000000e+00
    outer loop
      vertex 4.762506e+00 1.428750e+01 4.762500e+00
      vertex 4.762506e+00 1.428750e+01 0.000000e+00
      vertex 4.762506e+00 1.905000e+01 4.762500e+00
    endloop
  endfacet
  facet normal 1.000000e+00 8.881784e-16 0.000000e+00
    outer loop
      vertex 4.762506e+00 1.905000e+01 4.762500e+00
      vertex 4.762506e+00 1.428750e+01 0.000000e+00
      vertex 4.762506e+00 1.905000e+01 0.000000e+00
    endloop
  endfacet
  facet normal 0.000000e+00 0.000000e+00 -1.000000e+00
    outer loop
      vertex 9.525005e+00 -4.762499e+00 0.000000e+00
      vertex 4.762506e+00 -9.524999e+00 0.000000e+00
      vertex 4.762506e+00 -4.762499e+00 0.000000e+00
    endloop
  endfacet
  facet normal -0.000000e+00 -0.000000e+00 -1.000000e+00
    outer loop
      vertex 9.525005e+00 -4.762499e+00 0.000000e+00
      vertex 1.428750e+01 -9.524999e+00 0.000000e+00
      vertex 4.762506e+00 -9.524999e+00 0.000000e+00
    endloop
  endfacet
  facet normal 0.000000e+00 0.000000e+00 -1.000000e+00
    outer loop
      vertex 9.525005e+00 -4.762499e+00 0.000000e+00
      vertex 1.905000e+01 -4.762499e+00 0.000000e+00
      vertex 1.428750e+01 -9.524999e+00 0.000000e+00
    endloop
  endfacet
  facet normal 0.000000e+00 0.000000e+00 -1.000000e+00
    outer loop
      vertex 9.525005e+00 -4.762499e+00 0.000000e+00
      vertex 1.905000e+01 1.490116e-06 0.000000e+00
      vertex 1.905000e+01 -4.762499e+00 0.000000e+00
    endloop
  endfacet
  facet normal 0.000000e+00 0.000000e+00 -1.000000e+00
    outer loop
      vertex 9.525005e+00 -4.762499e+00 0.000000e+00
      vertex 9.525005e+00 1.490116e-06 0.000000e+00
      vertex 1.905000e+01 1.490116e-06 0.000000e+00
    endloop
  endfacet
  facet normal 0.000000e+00 0.000000e+00 -1.000000e+00
    outer loop
      vertex 1.905000e+01 1.490116e-06 0.000000e+00
      vertex 9.525005e+00 1.490116e-06 0.000000e+00
      vertex 1.428750e+01 9.525000e+00 0.000000e+00
    endloop
  endfacet
  facet normal 0.000000e+00 0.000000e+00 -1.000000e+00
    outer loop
      vertex 2.381250e+01 4.762503e+00 0.000000e+00
      vertex 1.428750e+01 9.525000e+00 0.000000e+00
      vertex 2.381250e+01 9.525000e+00 0.000000e+00
    endloop
  endfacet
  facet normal 0.000000e+00 0.000000e+00 -1.000000e+00
    outer loop
      vertex 2.381250e+01 4.762503e+00 0.000000e+00
      vertex 1.905000e+01 1.490116e-06 0.000000e+00
      vertex 1.428750e+01 9.525000e+00 0.000000e+00
    endloop
  endfacet
  facet normal -0.000000e+00 -0.000000e+00 -1.000000e+00
    outer loop
      vertex 2.381250e+01 4.762503e+00 0.000000e+00
      vertex 2.381250e+01 1.490116e-06 0.000000e+00
      vertex 1.905000e+01 1.490116e-06 0.000000e+00
    endloop
  endfacet
  facet normal 0.000000e+00 0.000000e+00 -1.000000e+00
    outer loop
      vertex 2.381250e+01 4.762503e+00 0.000000e+00
      vertex 2.857500e+01 4.762503e+00 0.000000e+00
      vertex 2.381250e+01 1.490116e-06 0.000000e+00
    endloop
  endfacet
  facet normal 0.000000e+00 0.000000e+00 -1.000000e+00
    outer loop
      vertex 2.381250e+01 1.490116e-06 0.000000e+00
      vertex 2.857500e+01 4.762503e+00 0.000000e+00
      vertex 2.857500e+01 1.490116e-06 0.000000e+00
    endloop
  endfacet
  facet normal 0.000000e+00 0.000000e+00 -1.000000e+00
    outer loop
      vertex 2.381250e+01 -4.762499e+00 0.000000e+00
      vertex 2.857500e+01 1.490116e-06 0.000000e+00
      vertex 3.333750e+01 -4.762499e+00 0.000000e+00
    endloop
  endfacet
  facet normal 0.000000e+00 0.000000e+00 -1.000000e+00
    outer loop
      vertex 2.857500e+01 -9.524999e+00 0.000000e+00
      vertex 3.333750e+01 -4.762499e+00 0.000000e+00
      vertex 3.810000e+01 -9.524999e+00 0.000000e+00
    endloop
  endfacet
  facet normal 0.000000e+00 0.000000e+00 -1.000000e+00
    outer loop
      vertex 2.857500e+01 -9.524999e+00 0.000000e+00
      vertex 2.381250e+01 -4.762499e+00 0.000000e+00
      vertex 3.333750e+01 -4.762499e+00 0.000000e+00
    endloop
  endfacet
  facet normal 0.000000e+00 0.000000e+00 -1.000000e+00
    outer loop
      vertex 2.857500e+01 -9.524999e+00 0.000000e+00
      vertex 1.905000e+01 -4.762499e+00 0.000000e+00
      vertex 2.381250e+01 -4.762499e+00 0.000000e+00
    endloop
  endfacet
  facet normal 0.000000e+00 0.000000e+00 -1.000000e+00
    outer loop
      vertex 2.857500e+01 -9.524999e+00 0.000000e+00
      vertex 1.428750e+01 -9.524999e+00 0.000000e+00
      vertex 1.905000e+01 -4.762499e+00 0.000000e+00
    endloop
  endfacet
  facet normal 0.000000e+00 0.000000e+00 -1.000000e+00
    outer loop
      vertex 2.857500e+01 -9.524999e+00 0.000000e+00
      vertex 1.905000e+01 -1.428750e+01 0.000000e+00
      vertex 1.428750e+01 -9.524999e+00 0.000000e+00
    endloop
  endfacet
  facet normal 0.000000e+00 0.000000e+00 -1.000000e+00
    outer loop
      vertex 2.857500e+01 -9.524999e+00 0.000000e+00
      vertex 2.381250e+01 -1.428750e+01 0.000000e+00
      vertex 1.905000e+01 -1.428750e+01 0.000000e+00
    endloop
  endfacet
  facet normal -0.000000e+00 -0.000000e+00 -1.000000e+00
    outer loop
      vertex 2.857500e+01 -9.524999e+00 0.000000e+00
      vertex 2.857500e+01 -1.428750e+01 0.000000e+00
      vertex 2.381250e+01 -1.428750e+01 0.000000e+00
    endloop
  endfacet
  facet normal 0.000000e+00 0.000000e+00 -1.000000e+00
    outer loop
      vertex 9.525005e+00 1.490116e-06 0.000000e+00
      vertex 4.762506e+00 1.490116e-06 0.000000e+00
      vertex 1.428750e+01 9.525000e+00 0.000000e+00
    endloop
  endfacet
  facet normal 0.000000e+00 0.000000e+00 -1.000000e+00
    outer loop
      vertex 1.428750e+01 9.525000e+00 0.000000e+00
      vertex 4.762506e+00 1.490116e-06 0.000000e+00
      vertex 2.381256e+00 1.428750e+01 0.000000e+00
    endloop
  endfacet
  facet normal 0.000000e+00 0.000000e+00 -1.000000e+00
    outer loop
      vertex 4.762506e+00 1.428750e+01 0.000000e+00
      vertex 2.381256e+00 1.428750e+01 0.000000e+00
      vertex 2.381256e+00 1.714500e+01 0.000000e+00
    endloop
  endfacet
  facet normal 0.000000e+00 0.000000e+00 -1.000000e+00
    outer loop
      vertex 4.762506e+00 1.905000e+01 0.000000e+00
      vertex 2.381256e+00 1.714500e+01 0.000000e+00
      vertex -2.381244e+00 1.714500e+01 0.000000e+00
    endloop
  endfacet
  facet normal 0.000000e+00 0.000000e+00 -1.000000e+00
    outer loop
      vertex -4.762495e+00 1.905000e+01 0.000000e+00
      vertex -2.381244e+00 1.714500e+01 0.000000e+00
      vertex -4.762495e+00 1.428750e+01 0.000000e+00
    endloop
  endfacet
  facet normal 0.000000e+00 0.000000e+00 -1.000000e+00
    outer loop
      vertex -4.762495e+00 1.905000e+01 0.000000e+00
      vertex 4.762506e+00 1.905000e+01 0.000000e+00
      vertex -2.381244e+00 1.714500e+01 0.000000e+00
    endloop
  endfacet
  facet normal 0.000000e+00 0.000000e+00 -1.000000e+00
    outer loop
      vertex 4.762506e+00 -4.762499e+00 0.000000e+00
      vertex -4.762495e+00 -4.762499e+00 0.000000e+00
      vertex 4.762506e+00 1.490116e-06 0.000000e+00
    endloop
  endfacet
  facet normal 0.000000e+00 0.000000e+00 -1.000000e+00
    outer loop
      vertex 4.762506e+00 -4.762499e+00 0.000000e+00
      vertex -4.762495e+00 -9.524999e+00 0.000000e+00
      vertex -4.762495e+00 -4.762499e+00 0.000000e+00
    endloop
  endfacet
  facet normal -0.000000e+00 -0.000000e+00 -1.000000e+00
    outer loop
      vertex 4.762506e+00 -4.762499e+00 0.000000e+00
      vertex 4.762506e+00 -9.524999e+00 0.000000e+00
      vertex -4.762495e+00 -9.524999e+00 0.000000e+00
    endloop
  endfacet
  facet normal 0.000000e+00 0.000000e+00 -1.000000e+00
    outer loop
      vertex -4.762495e+00 -9.524999e+00 0.000000e+00
      vertex 4.762506e+00 -9.524999e+00 0.000000e+00
      vertex -4.762495e+00 -1.428750e+01 0.000000e+00
    endloop
  endfacet
  facet normal 0.000000e+00 0.000000e+00 -1.000000e+00
    outer loop
      vertex -4.762495e+00 -1.428750e+01 0.000000e+00
      vertex 4.762506e+00 -9.524999e+00 0.000000e+00
      vertex 4.762506e+00 -1.428750e+01 0.000000e+00
    endloop
  endfacet
  facet normal 0.000000e+00 0.000000e+00 -1.000000e+00
    outer loop
      vertex -4.762495e+00 -4.762499e+00 0.000000e+00
      vertex -4.762495e+00 1.490116e-06 0.000000e+00
      vertex 4.762506e+00 1.490116e-06 0.000000e+00
    endloop
  endfacet
  facet normal 0.000000e+00 0.000000e+00 -1.000000e+00
    outer loop
      vertex 4.762506e+00 1.490116e-06 0.000000e+00
      vertex -4.762495e+00 1.490116e-06 0.000000e+00
      vertex 2.381256e+00 1.428750e+01 0.000000e+00
    endloop
  endfacet
  facet normal 0.000000e+00 0.000000e+00 -1.000000e+00
    outer loop
      vertex 2.381256e+00 1.428750e+01 0.000000e+00
      vertex -4.762495e+00 1.490116e-06 0.000000e+00
      vertex -2.381244e+00 1.428750e+01 0.000000e+00
    endloop
  endfacet
  facet normal 0.000000e+00 0.000000e+00 -1.000000e+00
    outer loop
      vertex -2.381244e+00 1.428750e+01 0.000000e+00
      vertex -4.762495e+00 1.490116e-06 0.000000e+00
      vertex -1.428749e+01 9.525000e+00 0.000000e+00
    endloop
  endfacet
  facet normal 0.000000e+00 0.000000e+00 -1.000000e+00
    outer loop
      vertex -4.762495e+00 1.428750e+01 0.000000e+00
      vertex -1.428749e+01 9.525000e+00 0.000000e+00
      vertex -1.428749e+01 1.428750e+01 0.000000e+00
    endloop
  endfacet
  facet normal 0.000000e+00 0.000000e+00 -1.000000e+00
    outer loop
      vertex -4.762495e+00 1.428750e+01 0.000000e+00
      vertex -2.381244e+00 1.428750e+01 0.000000e+00
      vertex -1.428749e+01 9.525000e+00 0.000000e+00
    endloop
  endfacet
  facet normal 0.000000e+00 0.000000e+00 -1.000000e+00
    outer loop
      vertex -4.762495e+00 1.428750e+01 0.000000e+00
      vertex -2.381244e+00 1.714500e+01 0.000000e+00
      vertex -2.381244e+00 1.428750e+01 0.000000e+00
    endloop
  endfacet
  facet normal 0.000000e+00 0.000000e+00 -1.000000e+00
    outer loop
      vertex -4.762495e+00 1.490116e-06 0.000000e+00
      vertex -9.524994e+00 1.490116e-06 0.000000e+00
      vertex -1.428749e+01 9.525000e+00 0.000000e+00
    endloop
  endfacet
  facet normal -0.000000e+00 -0.000000e+00 -1.000000e+00
    outer loop
      vertex -1.428749e+01 9.525000e+00 0.000000e+00
      vertex -9.524994e+00 1.490116e-06 0.000000e+00
      vertex -1.904999e+01 1.490116e-06 0.000000e+00
    endloop
  endfacet
  facet normal -0.000000e+00 -0.000000e+00 -1.000000e+00
    outer loop
      vertex -2.381249e+01 4.762503e+00 0.000000e+00
      vertex -1.904999e+01 1.490116e-06 0.000000e+00
      vertex -2.381249e+01 1.490116e-06 0.000000e+00
    endloop
  endfacet
  facet normal 0.000000e+00 0.000000e+00 -1.000000e+00
    outer loop
      vertex -2.857500e+01 1.490116e-06 0.000000e+00
      vertex -2.381249e+01 1.490116e-06 0.000000e+00
      vertex -2.381249e+01 -4.762499e+00 0.000000e+00
    endloop
  endfacet
  facet normal 0.000000e+00 0.000000e+00 -1.000000e+00
    outer loop
      vertex -3.333750e+01 -4.762499e+00 0.000000e+00
      vertex -2.381249e+01 -4.762499e+00 0.000000e+00
      vertex -2.857500e+01 -9.524999e+00 0.000000e+00
    endloop
  endfacet
  facet normal 0.000000e+00 0.000000e+00 -1.000000e+00
    outer loop
      vertex -3.810000e+01 -9.524999e+00 0.000000e+00
      vertex -3.333750e+01 -4.762499e+00 0.000000e+00
      vertex -2.857500e+01 -9.524999e+00 0.000000e+00
    endloop
  endfacet
  facet normal 0.000000e+00 0.000000e+00 -1.000000e+00
    outer loop
      vertex -3.810000e+01 -9.524999e+00 0.000000e+00
      vertex -3.810000e+01 -4.762499e+00 0.000000e+00
      vertex -3.333750e+01 -4.762499e+00 0.000000e+00
    endloop
  endfacet
  facet normal 0.000000e+00 0.000000e+00 -1.000000e+00
    outer loop
      vertex -1.904999e+01 1.490116e-06 0.000000e+00
      vertex -9.524994e+00 1.490116e-06 0.000000e+00
      vertex -1.904999e+01 -4.762499e+00 0.000000e+00
    endloop
  endfacet
  facet normal 0.000000e+00 0.000000e+00 -1.000000e+00
    outer loop
      vertex -1.904999e+01 -4.762499e+00 0.000000e+00
      vertex -9.524994e+00 1.490116e-06 0.000000e+00
      vertex -9.524994e+00 -4.762499e+00 0.000000e+00
    endloop
  endfacet
  facet normal 0.000000e+00 0.000000e+00 -1.000000e+00
    outer loop
      vertex -1.428749e+01 -9.524999e+00 0.000000e+00
      vertex -9.524994e+00 -4.762499e+00 0.000000e+00
      vertex -4.762495e+00 -9.524999e+00 0.000000e+00
    endloop
  endfacet
  facet normal 0.000000e+00 0.000000e+00 -1.000000e+00
    outer loop
      vertex -1.428749e+01 -9.524999e+00 0.000000e+00
      vertex -1.904999e+01 -4.762499e+00 0.000000e+00
      vertex -9.524994e+00 -4.762499e+00 0.000000e+00
    endloop
  endfacet
  facet normal 0.000000e+00 0.000000e+00 -1.000000e+00
    outer loop
      vertex -1.428749e+01 -9.524999e+00 0.000000e+00
      vertex -2.857500e+01 -9.524999e+00 0.000000e+00
      vertex -1.904999e+01 -4.762499e+00 0.000000e+00
    endloop
  endfacet
  facet normal 0.000000e+00 0.000000e+00 -1.000000e+00
    outer loop
      vertex -1.428749e+01 -9.524999e+00 0.000000e+00
      vertex -1.904999e+01 -1.428750e+01 0.000000e+00
      vertex -2.857500e+01 -9.524999e+00 0.000000e+00
    endloop
  endfacet
  facet normal 0.000000e+00 0.000000e+00 -1.000000e+00
    outer loop
      vertex -1.428749e+01 -9.524999e+00 0.000000e+00
      vertex -1.428749e+01 -1.428750e+01 0.000000e+00
      vertex -1.904999e+01 -1.428750e+01 0.000000e+00
    endloop
  endfacet
  facet normal 0.000000e+00 0.000000e+00 -1.000000e+00
    outer loop
      vertex -9.524994e+00 -4.762499e+00 0.000000e+00
      vertex -4.762495e+00 -4.762499e+00 0.000000e+00
      vertex -4.762495e+00 -9.524999e+00 0.000000e+00
    endloop
  endfacet
  facet normal 0.000000e+00 0.000000e+00 -1.000000e+00
    outer loop
      vertex 2.381250e+01 -4.762499e+00 0.000000e+00
      vertex 2.381250e+01 1.490116e-06 0.000000e+00
      vertex 2.857500e+01 1.490116e-06 0.000000e+00
    endloop
  endfacet
  facet normal 0.000000e+00 0.000000e+00 -1.000000e+00
    outer loop
      vertex -1.428749e+01 9.525000e+00 0.000000e+00
      vertex -1.904999e+01 1.490116e-06 0.000000e+00
      vertex -2.381249e+01 4.762503e+00 0.000000e+00
    endloop
  endfacet
  facet normal 0.000000e+00 0.000000e+00 -1.000000e+00
    outer loop
      vertex -2.381249e+01 9.525000e+00 0.000000e+00
      vertex -1.428749e+01 9.525000e+00 0.000000e+00
      vertex -2.381249e+01 4.762503e+00 0.000000e+00
    endloop
  endfacet
  facet normal 0.000000e+00 0.000000e+00 -1.000000e+00
    outer loop
      vertex -2.381249e+01 4.762503e+00 0.000000e+00
      vertex -2.381249e+01 1.490116e-06 0.000000e+00
      vertex -2.857500e+01 1.490116e-06 0.000000e+00
    endloop
  endfacet
  facet normal 0.000000e+00 0.000000e+00 -1.000000e+00
    outer loop
      vertex -2.857500e+01 4.762503e+00 0.000000e+00
      vertex -2.381249e+01 4.762503e+00 0.000000e+00
      vertex -2.857500e+01 1.490116e-06 0.000000e+00
    endloop
  endfacet
  facet normal 0.000000e+00 0.000000e+00 -1.000000e+00
    outer loop
      vertex -2.381249e+01 -4.762499e+00 0.000000e+00
      vertex -1.904999e+01 -4.762499e+00 0.000000e+00
      vertex -2.857500e+01 -9.524999e+00 0.000000e+00
    endloop
  endfacet
  facet normal 0.000000e+00 0.000000e+00 -1.000000e+00
    outer loop
      vertex 1.428750e+01 9.525000e+00 0.000000e+00
      vertex 2.381256e+00 1.428750e+01 0.000000e+00
      vertex 4.762506e+00 1.428750e+01 0.000000e+00
    endloop
  endfacet
  facet normal 0.000000e+00 0.000000e+00 -1.000000e+00
    outer loop
      vertex 1.428750e+01 1.428750e+01 0.000000e+00
      vertex 1.428750e+01 9.525000e+00 0.000000e+00
      vertex 4.762506e+00 1.428750e+01 0.000000e+00
    endloop
  endfacet
  facet normal 0.000000e+00 0.000000e+00 -1.000000e+00
    outer loop
      vertex 4.762506e+00 1.428750e+01 0.000000e+00
      vertex 2.381256e+00 1.714500e+01 0.000000e+00
      vertex 4.762506e+00 1.905000e+01 0.000000e+00
    endloop
  endfacet
  facet normal 0.000000e+00 0.000000e+00 -1.000000e+00
    outer loop
      vertex 2.857500e+01 1.490116e-06 0.000000e+00
      vertex 3.333750e+01 1.490116e-06 0.000000e+00
      vertex 3.333750e+01 -4.762499e+00 0.000000e+00
    endloop
  endfacet
  facet normal 0.000000e+00 0.000000e+00 -1.000000e+00
    outer loop
      vertex 3.333750e+01 -4.762499e+00 0.000000e+00
      vertex 3.810000e+01 -4.762499e+00 0.000000e+00
      vertex 3.810000e+01 -9.524999e+00 0.000000e+00
    endloop
  endfacet
  facet normal 0.000000e+00 0.000000e+00 -1.000000e+00
    outer loop
      vertex 2.381250e+01 -1.905000e+01 0.000000e+00
      vertex 1.905000e+01 -1.905000e+01 0.000000e+00
      vertex 2.381250e+01 -1.428750e+01 0.000000e+00
    endloop
  endfacet
  facet normal 0.000000e+00 0.000000e+00 -1.000000e+00
    outer loop
      vertex 2.381250e+01 -1.428750e+01 0.000000e+00
      vertex 1.905000e+01 -1.905000e+01 0.000000e+00
      vertex 1.905000e+01 -1.428750e+01 0.000000e+00
    endloop
  endfacet
  facet normal 0.000000e+00 0.000000e+00 -1.000000e+00
    outer loop
      vertex 1.905000e+01 -1.428750e+01 0.000000e+00
      vertex 1.428750e+01 -1.428750e+01 0.000000e+00
      vertex 1.428750e+01 -9.524999e+00 0.000000e+00
    endloop
  endfacet
  facet normal 0.000000e+00 0.000000e+00 -1.000000e+00
    outer loop
      vertex -1.904999e+01 -1.905000e+01 0.000000e+00
      vertex -2.381249e+01 -1.905000e+01 0.000000e+00
      vertex -1.904999e+01 -1.428750e+01 0.000000e+00
    endloop
  endfacet
  facet normal 0.000000e+00 0.000000e+00 -1.000000e+00
    outer loop
      vertex -1.904999e+01 -1.428750e+01 0.000000e+00
      vertex -2.381249e+01 -1.905000e+01 0.000000e+00
      vertex -2.381249e+01 -1.428750e+01 0.000000e+00
    endloop
  endfacet
  facet normal 0.000000e+00 0.000000e+00 -1.000000e+00
    outer loop
      vertex -2.857500e+01 -9.524999e+00 0.000000e+00
      vertex -2.381249e+01 -1.428750e+01 0.000000e+00
      vertex -2.857500e+01 -1.428750e+01 0.000000e+00
    endloop
  endfacet
  facet normal 0.000000e+00 0.000000e+00 -1.000000e+00
    outer loop
      vertex -2.857500e+01 -9.524999e+00 0.000000e+00
      vertex -1.904999e+01 -1.428750e+01 0.000000e+00
      vertex -2.381249e+01 -1.428750e+01 0.000000e+00
    endloop
  endfacet
  facet normal 0.000000e+00 0.000000e+00 -1.000000e+00
    outer loop
      vertex -3.333750e+01 1.490116e-06 0.000000e+00
      vertex -2.857500e+01 1.490116e-06 0.000000e+00
      vertex -3.333750e+01 -4.762499e+00 0.000000e+00
    endloop
  endfacet
  facet normal 0.000000e+00 0.000000e+00 -1.000000e+00
    outer loop
      vertex -3.333750e+01 -4.762499e+00 0.000000e+00
      vertex -2.857500e+01 1.490116e-06 0.000000e+00
      vertex -2.381249e+01 -4.762499e+00 0.000000e+00
    endloop
  endfacet
  facet normal 0.000000e+00 0.000000e+00 1.000000e+00
    outer loop
      vertex 4.762506e+00 -4.762499e+00 4.762500e+00
      vertex 4.762506e+00 -9.524999e+00 4.762500e+00
      vertex 9.525005e+00 -4.762499e+00 4.762500e+00
    endloop
  endfacet
  facet normal 0.000000e+00 0.000000e+00 1.000000e+00
    outer loop
      vertex 4.762506e+00 -4.762499e+00 4.762500e+00
      vertex -4.762495e+00 -4.762499e+00 4.762500e+00
      vertex 4.762506e+00 -9.524999e+00 4.762500e+00
    endloop
  endfacet
  facet normal 0.000000e+00 0.000000e+00 1.000000e+00
    outer loop
      vertex 4.762506e+00 -4.762499e+00 4.762500e+00
      vertex -4.762495e+00 1.490116e-06 4.762500e+00
      vertex -4.762495e+00 -4.762499e+00 4.762500e+00
    endloop
  endfacet
  facet normal 0.000000e+00 0.000000e+00 1.000000e+00
    outer loop
      vertex 4.762506e+00 -4.762499e+00 4.762500e+00
      vertex 4.762506e+00 1.490116e-06 4.762500e+00
      vertex -4.762495e+00 1.490116e-06 4.762500e+00
    endloop
  endfacet
  facet normal 0.000000e+00 0.000000e+00 1.000000e+00
    outer loop
      vertex -4.762495e+00 1.490116e-06 4.762500e+00
      vertex 4.762506e+00 1.490116e-06 4.762500e+00
      vertex -2.381244e+00 1.428750e+01 4.762500e+00
    endloop
  endfacet
  facet normal 0.000000e+00 0.000000e+00 1.000000e+00
    outer loop
      vertex -1.428749e+01 9.525000e+00 4.762500e+00
      vertex -2.381244e+00 1.428750e+01 4.762500e+00
      vertex -4.762495e+00 1.428750e+01 4.762500e+00
    endloop
  endfacet
  facet normal 0.000000e+00 0.000000e+00 1.000000e+00
    outer loop
      vertex -1.428749e+01 1.428750e+01 4.762500e+00
      vertex -1.428749e+01 9.525000e+00 4.762500e+00
      vertex -4.762495e+00 1.428750e+01 4.762500e+00
    endloop
  endfacet
  facet normal 0.000000e+00 0.000000e+00 1.000000e+00
    outer loop
      vertex 9.525005e+00 1.490116e-06 4.762500e+00
      vertex 1.428750e+01 9.525000e+00 4.762500e+00
      vertex 4.762506e+00 1.490116e-06 4.762500e+00
    endloop
  endfacet
  facet normal 0.000000e+00 0.000000e+00 1.000000e+00
    outer loop
      vertex 9.525005e+00 1.490116e-06 4.762500e+00
      vertex 1.905000e+01 1.490116e-06 4.762500e+00
      vertex 1.428750e+01 9.525000e+00 4.762500e+00
    endloop
  endfacet
  facet normal 0.000000e+00 0.000000e+00 1.000000e+00
    outer loop
      vertex 9.525005e+00 1.490116e-06 4.762500e+00
      vertex 1.905000e+01 -4.762499e+00 4.762500e+00
      vertex 1.905000e+01 1.490116e-06 4.762500e+00
    endloop
  endfacet
  facet normal 0.000000e+00 0.000000e+00 1.000000e+00
    outer loop
      vertex 9.525005e+00 1.490116e-06 4.762500e+00
      vertex 9.525005e+00 -4.762499e+00 4.762500e+00
      vertex 1.905000e+01 -4.762499e+00 4.762500e+00
    endloop
  endfacet
  facet normal 0.000000e+00 0.000000e+00 1.000000e+00
    outer loop
      vertex 1.905000e+01 -4.762499e+00 4.762500e+00
      vertex 9.525005e+00 -4.762499e+00 4.762500e+00
      vertex 1.428750e+01 -9.524999e+00 4.762500e+00
    endloop
  endfacet
  facet normal 0.000000e+00 0.000000e+00 1.000000e+00
    outer loop
      vertex 2.857500e+01 -9.524999e+00 4.762500e+00
      vertex 1.428750e+01 -9.524999e+00 4.762500e+00
      vertex 1.905000e+01 -1.428750e+01 4.762500e+00
    endloop
  endfacet
  facet normal 0.000000e+00 0.000000e+00 1.000000e+00
    outer loop
      vertex 2.381250e+01 -1.428750e+01 4.762500e+00
      vertex 1.905000e+01 -1.428750e+01 4.762500e+00
      vertex 2.381250e+01 -1.905000e+01 4.762500e+00
    endloop
  endfacet
  facet normal 0.000000e+00 0.000000e+00 1.000000e+00
    outer loop
      vertex 2.381250e+01 -1.428750e+01 4.762500e+00
      vertex 2.857500e+01 -9.524999e+00 4.762500e+00
      vertex 1.905000e+01 -1.428750e+01 4.762500e+00
    endloop
  endfacet
  facet normal 0.000000e+00 0.000000e+00 1.000000e+00
    outer loop
      vertex 2.381250e+01 -1.428750e+01 4.762500e+00
      vertex 2.857500e+01 -1.428750e+01 4.762500e+00
      vertex 2.857500e+01 -9.524999e+00 4.762500e+00
    endloop
  endfacet
  facet normal 0.000000e+00 0.000000e+00 1.000000e+00
    outer loop
      vertex 4.762506e+00 -9.524999e+00 4.762500e+00
      vertex -4.762495e+00 -4.762499e+00 4.762500e+00
      vertex -4.762495e+00 -9.524999e+00 4.762500e+00
    endloop
  endfacet
  facet normal 0.000000e+00 0.000000e+00 1.000000e+00
    outer loop
      vertex 4.762506e+00 -1.428750e+01 4.762500e+00
      vertex -4.762495e+00 -9.524999e+00 4.762500e+00
      vertex -4.762495e+00 -1.428750e+01 4.762500e+00
    endloop
  endfacet
  facet normal 0.000000e+00 0.000000e+00 1.000000e+00
    outer loop
      vertex 4.762506e+00 -1.428750e+01 4.762500e+00
      vertex 4.762506e+00 -9.524999e+00 4.762500e+00
      vertex -4.762495e+00 -9.524999e+00 4.762500e+00
    endloop
  endfacet
  facet normal 0.000000e+00 0.000000e+00 1.000000e+00
    outer loop
      vertex -9.524994e+00 1.490116e-06 4.762500e+00
      vertex -1.904999e+01 1.490116e-06 4.762500e+00
      vertex -9.524994e+00 -4.762499e+00 4.762500e+00
    endloop
  endfacet
  facet normal 0.000000e+00 0.000000e+00 1.000000e+00
    outer loop
      vertex -9.524994e+00 1.490116e-06 4.762500e+00
      vertex -1.428749e+01 9.525000e+00 4.762500e+00
      vertex -1.904999e+01 1.490116e-06 4.762500e+00
    endloop
  endfacet
  facet normal 0.000000e+00 0.000000e+00 1.000000e+00
    outer loop
      vertex -9.524994e+00 1.490116e-06 4.762500e+00
      vertex -4.762495e+00 1.490116e-06 4.762500e+00
      vertex -1.428749e+01 9.525000e+00 4.762500e+00
    endloop
  endfacet
  facet normal 0.000000e+00 0.000000e+00 1.000000e+00
    outer loop
      vertex -1.428749e+01 9.525000e+00 4.762500e+00
      vertex -4.762495e+00 1.490116e-06 4.762500e+00
      vertex -2.381244e+00 1.428750e+01 4.762500e+00
    endloop
  endfacet
  facet normal 0.000000e+00 0.000000e+00 1.000000e+00
    outer loop
      vertex 1.428750e+01 9.525000e+00 4.762500e+00
      vertex 1.905000e+01 1.490116e-06 4.762500e+00
      vertex 2.381250e+01 4.762503e+00 4.762500e+00
    endloop
  endfacet
  facet normal 0.000000e+00 0.000000e+00 1.000000e+00
    outer loop
      vertex 2.381250e+01 9.525000e+00 4.762500e+00
      vertex 1.428750e+01 9.525000e+00 4.762500e+00
      vertex 2.381250e+01 4.762503e+00 4.762500e+00
    endloop
  endfacet
  facet normal 0.000000e+00 0.000000e+00 1.000000e+00
    outer loop
      vertex 2.381250e+01 -4.762499e+00 4.762500e+00
      vertex 2.857500e+01 1.490116e-06 4.762500e+00
      vertex 2.381250e+01 1.490116e-06 4.762500e+00
    endloop
  endfacet
  facet normal 0.000000e+00 0.000000e+00 1.000000e+00
    outer loop
      vertex 2.381250e+01 -4.762499e+00 4.762500e+00
      vertex 3.333750e+01 -4.762499e+00 4.762500e+00
      vertex 2.857500e+01 1.490116e-06 4.762500e+00
    endloop
  endfacet
  facet normal 0.000000e+00 0.000000e+00 1.000000e+00
    outer loop
      vertex 2.381250e+01 -4.762499e+00 4.762500e+00
      vertex 2.857500e+01 -9.524999e+00 4.762500e+00
      vertex 3.333750e+01 -4.762499e+00 4.762500e+00
    endloop
  endfacet
  facet normal 0.000000e+00 0.000000e+00 1.000000e+00
    outer loop
      vertex 2.381250e+01 -4.762499e+00 4.762500e+00
      vertex 1.905000e+01 -4.762499e+00 4.762500e+00
      vertex 2.857500e+01 -9.524999e+00 4.762500e+00
    endloop
  endfacet
  facet normal 0.000000e+00 0.000000e+00 1.000000e+00
    outer loop
      vertex 2.857500e+01 -9.524999e+00 4.762500e+00
      vertex 1.905000e+01 -4.762499e+00 4.762500e+00
      vertex 1.428750e+01 -9.524999e+00 4.762500e+00
    endloop
  endfacet
  facet normal 0.000000e+00 0.000000e+00 1.000000e+00
    outer loop
      vertex -1.904999e+01 1.490116e-06 4.762500e+00
      vertex -1.904999e+01 -4.762499e+00 4.762500e+00
      vertex -9.524994e+00 -4.762499e+00 4.762500e+00
    endloop
  endfacet
  facet normal 0.000000e+00 0.000000e+00 1.000000e+00
    outer loop
      vertex -9.524994e+00 -4.762499e+00 4.762500e+00
      vertex -1.904999e+01 -4.762499e+00 4.762500e+00
      vertex -1.428749e+01 -9.524999e+00 4.762500e+00
    endloop
  endfacet
  facet normal 0.000000e+00 0.000000e+00 1.000000e+00
    outer loop
      vertex -4.762495e+00 -9.524999e+00 4.762500e+00
      vertex -9.524994e+00 -4.762499e+00 4.762500e+00
      vertex -1.428749e+01 -9.524999e+00 4.762500e+00
    endloop
  endfacet
  facet normal 0.000000e+00 0.000000e+00 1.000000e+00
    outer loop
      vertex -4.762495e+00 -9.524999e+00 4.762500e+00
      vertex -4.762495e+00 -4.762499e+00 4.762500e+00
      vertex -9.524994e+00 -4.762499e+00 4.762500e+00
    endloop
  endfacet
  facet normal 0.000000e+00 0.000000e+00 1.000000e+00
    outer loop
      vertex -1.428749e+01 -9.524999e+00 4.762500e+00
      vertex -1.904999e+01 -4.762499e+00 4.762500e+00
      vertex -2.857500e+01 -9.524999e+00 4.762500e+00
    endloop
  endfacet
  facet normal 0.000000e+00 0.000000e+00 1.000000e+00
    outer loop
      vertex -1.904999e+01 -1.428750e+01 4.762500e+00
      vertex -2.857500e+01 -9.524999e+00 4.762500e+00
      vertex -2.381249e+01 -1.428750e+01 4.762500e+00
    endloop
  endfacet
  facet normal 0.000000e+00 0.000000e+00 1.000000e+00
    outer loop
      vertex -1.904999e+01 -1.905000e+01 4.762500e+00
      vertex -2.381249e+01 -1.428750e+01 4.762500e+00
      vertex -2.381249e+01 -1.905000e+01 4.762500e+00
    endloop
  endfacet
  facet normal 0.000000e+00 0.000000e+00 1.000000e+00
    outer loop
      vertex -1.904999e+01 -1.905000e+01 4.762500e+00
      vertex -1.904999e+01 -1.428750e+01 4.762500e+00
      vertex -2.381249e+01 -1.428750e+01 4.762500e+00
    endloop
  endfacet
  facet normal 0.000000e+00 0.000000e+00 1.000000e+00
    outer loop
      vertex -2.381249e+01 1.490116e-06 4.762500e+00
      vertex -2.857500e+01 1.490116e-06 4.762500e+00
      vertex -2.381249e+01 -4.762499e+00 4.762500e+00
    endloop
  endfacet
  facet normal 0.000000e+00 0.000000e+00 1.000000e+00
    outer loop
      vertex -2.381249e+01 1.490116e-06 4.762500e+00
      vertex -2.857500e+01 4.762503e+00 4.762500e+00
      vertex -2.857500e+01 1.490116e-06 4.762500e+00
    endloop
  endfacet
  facet normal 0.000000e+00 0.000000e+00 1.000000e+00
    outer loop
      vertex -2.381249e+01 1.490116e-06 4.762500e+00
      vertex -2.381249e+01 4.762503e+00 4.762500e+00
      vertex -2.857500e+01 4.762503e+00 4.762500e+00
    endloop
  endfacet
  facet normal 0.000000e+00 0.000000e+00 1.000000e+00
    outer loop
      vertex -2.381249e+01 1.490116e-06 4.762500e+00
      vertex -1.904999e+01 1.490116e-06 4.762500e+00
      vertex -2.381249e+01 4.762503e+00 4.762500e+00
    endloop
  endfacet
  facet normal 0.000000e+00 0.000000e+00 1.000000e+00
    outer loop
      vertex -2.381249e+01 4.762503e+00 4.762500e+00
      vertex -1.904999e+01 1.490116e-06 4.762500e+00
      vertex -1.428749e+01 9.525000e+00 4.762500e+00
    endloop
  endfacet
  facet normal 0.000000e+00 0.000000e+00 1.000000e+00
    outer loop
      vertex -2.381249e+01 9.525000e+00 4.762500e+00
      vertex -2.381249e+01 4.762503e+00 4.762500e+00
      vertex -1.428749e+01 9.525000e+00 4.762500e+00
    endloop
  endfacet
  facet normal 0.000000e+00 0.000000e+00 1.000000e+00
    outer loop
      vertex -2.381244e+00 1.428750e+01 4.762500e+00
      vertex -2.381244e+00 1.714500e+01 4.762500e+00
      vertex -4.762495e+00 1.428750e+01 4.762500e+00
    endloop
  endfacet
  facet normal 0.000000e+00 0.000000e+00 1.000000e+00
    outer loop
      vertex -4.762495e+00 1.428750e+01 4.762500e+00
      vertex -2.381244e+00 1.714500e+01 4.762500e+00
      vertex -4.762495e+00 1.905000e+01 4.762500e+00
    endloop
  endfacet
  facet normal 0.000000e+00 0.000000e+00 1.000000e+00
    outer loop
      vertex -4.762495e+00 1.905000e+01 4.762500e+00
      vertex -2.381244e+00 1.714500e+01 4.762500e+00
      vertex 2.381256e+00 1.714500e+01 4.762500e+00
    endloop
  endfacet
  facet normal 0.000000e+00 0.000000e+00 1.000000e+00
    outer loop
      vertex 4.762506e+00 1.905000e+01 4.762500e+00
      vertex 2.381256e+00 1.714500e+01 4.762500e+00
      vertex 4.762506e+00 1.428750e+01 4.762500e+00
    endloop
  endfacet
  facet normal 0.000000e+00 0.000000e+00 1.000000e+00
    outer loop
      vertex 4.762506e+00 1.905000e+01 4.762500e+00
      vertex -4.762495e+00 1.905000e+01 4.762500e+00
      vertex 2.381256e+00 1.714500e+01 4.762500e+00
    endloop
  endfacet
  facet normal 0.000000e+00 0.000000e+00 1.000000e+00
    outer loop
      vertex 2.381256e+00 1.714500e+01 4.762500e+00
      vertex 2.381256e+00 1.428750e+01 4.762500e+00
      vertex 4.762506e+00 1.428750e+01 4.762500e+00
    endloop
  endfacet
  facet normal 0.000000e+00 0.000000e+00 1.000000e+00
    outer loop
      vertex 4.762506e+00 1.428750e+01 4.762500e+00
      vertex 2.381256e+00 1.428750e+01 4.762500e+00
      vertex 1.428750e+01 9.525000e+00 4.762500e+00
    endloop
  endfacet
  facet normal 0.000000e+00 0.000000e+00 1.000000e+00
    outer loop
      vertex 1.428750e+01 1.428750e+01 4.762500e+00
      vertex 4.762506e+00 1.428750e+01 4.762500e+00
      vertex 1.428750e+01 9.525000e+00 4.762500e+00
    endloop
  endfacet
  facet normal 0.000000e+00 0.000000e+00 1.000000e+00
    outer loop
      vertex 1.428750e+01 9.525000e+00 4.762500e+00
      vertex 2.381256e+00 1.428750e+01 4.762500e+00
      vertex 4.762506e+00 1.490116e-06 4.762500e+00
    endloop
  endfacet
  facet normal 0.000000e+00 0.000000e+00 1.000000e+00
    outer loop
      vertex 4.762506e+00 1.490116e-06 4.762500e+00
      vertex 2.381256e+00 1.428750e+01 4.762500e+00
      vertex -2.381244e+00 1.428750e+01 4.762500e+00
    endloop
  endfacet
  facet normal 0.000000e+00 0.000000e+00 1.000000e+00
    outer loop
      vertex -3.333750e+01 1.490116e-06 4.762500e+00
      vertex -3.333750e+01 -4.762499e+00 4.762500e+00
      vertex -2.857500e+01 1.490116e-06 4.762500e+00
    endloop
  endfacet
  facet normal 0.000000e+00 0.000000e+00 1.000000e+00
    outer loop
      vertex -2.857500e+01 1.490116e-06 4.762500e+00
      vertex -3.333750e+01 -4.762499e+00 4.762500e+00
      vertex -2.381249e+01 -4.762499e+00 4.762500e+00
    endloop
  endfacet
  facet normal 0.000000e+00 0.000000e+00 1.000000e+00
    outer loop
      vertex -2.381249e+01 -4.762499e+00 4.762500e+00
      vertex -3.333750e+01 -4.762499e+00 4.762500e+00
      vertex -2.857500e+01 -9.524999e+00 4.762500e+00
    endloop
  endfacet
  facet normal 0.000000e+00 0.000000e+00 1.000000e+00
    outer loop
      vertex -1.904999e+01 -4.762499e+00 4.762500e+00
      vertex -2.381249e+01 -4.762499e+00 4.762500e+00
      vertex -2.857500e+01 -9.524999e+00 4.762500e+00
    endloop
  endfacet
  facet normal 0.000000e+00 0.000000e+00 1.000000e+00
    outer loop
      vertex -3.810000e+01 -4.762499e+00 4.762500e+00
      vertex -3.810000e+01 -9.524999e+00 4.762500e+00
      vertex -3.333750e+01 -4.762499e+00 4.762500e+00
    endloop
  endfacet
  facet normal 0.000000e+00 0.000000e+00 1.000000e+00
    outer loop
      vertex -3.333750e+01 -4.762499e+00 4.762500e+00
      vertex -3.810000e+01 -9.524999e+00 4.762500e+00
      vertex -2.857500e+01 -9.524999e+00 4.762500e+00
    endloop
  endfacet
  facet normal 0.000000e+00 0.000000e+00 1.000000e+00
    outer loop
      vertex -2.857500e+01 -9.524999e+00 4.762500e+00
      vertex -2.857500e+01 -1.428750e+01 4.762500e+00
      vertex -2.381249e+01 -1.428750e+01 4.762500e+00
    endloop
  endfacet
  facet normal 0.000000e+00 0.000000e+00 1.000000e+00
    outer loop
      vertex -1.428749e+01 -1.428750e+01 4.762500e+00
      vertex -1.428749e+01 -9.524999e+00 4.762500e+00
      vertex -1.904999e+01 -1.428750e+01 4.762500e+00
    endloop
  endfacet
  facet normal 0.000000e+00 0.000000e+00 1.000000e+00
    outer loop
      vertex -1.904999e+01 -1.428750e+01 4.762500e+00
      vertex -1.428749e+01 -9.524999e+00 4.762500e+00
      vertex -2.857500e+01 -9.524999e+00 4.762500e+00
    endloop
  endfacet
  facet normal 0.000000e+00 0.000000e+00 1.000000e+00
    outer loop
      vertex 4.762506e+00 -9.524999e+00 4.762500e+00
      vertex 1.428750e+01 -9.524999e+00 4.762500e+00
      vertex 9.525005e+00 -4.762499e+00 4.762500e+00
    endloop
  endfacet
  facet normal 0.000000e+00 0.000000e+00 1.000000e+00
    outer loop
      vertex 1.428750e+01 -9.524999e+00 4.762500e+00
      vertex 1.428750e+01 -1.428750e+01 4.762500e+00
      vertex 1.905000e+01 -1.428750e+01 4.762500e+00
    endloop
  endfacet
  facet normal 0.000000e+00 0.000000e+00 1.000000e+00
    outer loop
      vertex 1.905000e+01 -1.428750e+01 4.762500e+00
      vertex 1.905000e+01 -1.905000e+01 4.762500e+00
      vertex 2.381250e+01 -1.905000e+01 4.762500e+00
    endloop
  endfacet
  facet normal 0.000000e+00 0.000000e+00 1.000000e+00
    outer loop
      vertex 2.857500e+01 -9.524999e+00 4.762500e+00
      vertex 3.810000e+01 -9.524999e+00 4.762500e+00
      vertex 3.333750e+01 -4.762499e+00 4.762500e+00
    endloop
  endfacet
  facet normal 0.000000e+00 0.000000e+00 1.000000e+00
    outer loop
      vertex 3.333750e+01 -4.762499e+00 4.762500e+00
      vertex 3.810000e+01 -9.524999e+00 4.762500e+00
      vertex 3.810000e+01 -4.762499e+00 4.762500e+00
    endloop
  endfacet
  facet normal 0.000000e+00 0.000000e+00 1.000000e+00
    outer loop
      vertex 3.333750e+01 -4.762499e+00 4.762500e+00
      vertex 3.333750e+01 1.490116e-06 4.762500e+00
      vertex 2.857500e+01 1.490116e-06 4.762500e+00
    endloop
  endfacet
  facet normal 0.000000e+00 0.000000e+00 1.000000e+00
    outer loop
      vertex 2.857500e+01 4.762503e+00 4.762500e+00
      vertex 2.381250e+01 4.762503e+00 4.762500e+00
      vertex 2.857500e+01 1.490116e-06 4.762500e+00
    endloop
  endfacet
  facet normal 0.000000e+00 0.000000e+00 1.000000e+00
    outer loop
      vertex 2.857500e+01 1.490116e-06 4.762500e+00
      vertex 2.381250e+01 4.762503e+00 4.762500e+00
      vertex 2.381250e+01 1.490116e-06 4.762500e+00
    endloop
  endfacet
  facet normal 0.000000e+00 0.000000e+00 1.000000e+00
    outer loop
      vertex 2.381250e+01 1.490116e-06 4.762500e+00
      vertex 2.381250e+01 4.762503e+00 4.762500e+00
      vertex 1.905000e+01 1.490116e-06 4.762500e+00
    endloop
  endfacet
endsolid Default
